<svg id="Layer_1" data-name="Layer 1" xmlns="http://www.w3.org/2000/svg" xmlns:xlink="http://www.w3.org/1999/xlink" viewBox="0 0 1682.44 636.34"><defs><style>.cls-1{fill:#fff;}.cls-2{mask:url(#mask);}.cls-3{mask:url(#mask-2);}.cls-4{mask:url(#mask-3-2);}.cls-5{mask:url(#mask-4);}.cls-6{mask:url(#mask-5-2);}.cls-7{mask:url(#mask-7-2);}.cls-8{mask:url(#mask-9-2);}.cls-9{mask:url(#mask-13-2);}.cls-10{mask:url(#mask-16);}.cls-11{mask:url(#mask-22);}.cls-12{mask:url(#mask-27-2);}.cls-13{mask:url(#mask-29-2);}.cls-14{mask:url(#mask-30);}.cls-15{mask:url(#mask-31-2);}.cls-16{mask:url(#mask-32);}.cls-17{mask:url(#mask-33-2);}.cls-18{mask:url(#mask-34);}.cls-19{mask:url(#mask-35-2);}.cls-20{mask:url(#mask-36);}.cls-21{mask:url(#mask-37-2);}.cls-22{mask:url(#mask-38);}</style><mask id="mask" x="729.29" y="85.34" width="953.15" height="383.51" maskUnits="userSpaceOnUse"><g transform="translate(0 -546.2)"><g id="mask-3"><path id="path-2" class="cls-1" d="M729.29,631.55h953.15v383.51H729.29V631.55Z"/></g></g></mask><mask id="mask-2" x="0" y="0" width="606.17" height="636.34" maskUnits="userSpaceOnUse"><g transform="translate(0 -546.2)"><g id="mask-5"><path id="path-4" class="cls-1" d="M0,546.2H606.17v636.34H0V546.2Z"/></g></g></mask><mask id="mask-3-2" x="125.29" y="271.13" width="314.43" height="261.34" maskUnits="userSpaceOnUse"><g transform="translate(0 -546.2)"><g id="mask-7"><path id="path-6" class="cls-1" d="M352.19,880.37a141.71,141.71,0,0,1-68.76,11.89h0a14.06,14.06,0,0,1-4.91,5.72h0a14,14,0,0,1-7.26,0h0a140.77,140.77,0,0,1-54.38,43.64h0a141.81,141.81,0,0,1-91.59,8.64h0c49.87,101.09,151.93,152.83,231,117.12h0c79-35.89,106.56-146.36,62.44-250.05h0a140.51,140.51,0,0,1-66.54,63"/></g></g></mask><mask id="mask-4" x="125.29" y="216.42" width="314.43" height="316.05" maskUnits="userSpaceOnUse"><g transform="translate(0 -546.2)"><g id="mask-9"><path id="path-8" class="cls-1" d="M352.19,880.37a141.71,141.71,0,0,1-68.76,11.89h0a14.06,14.06,0,0,1-4.91,5.72h0a14,14,0,0,1-7.26,0h0a140.77,140.77,0,0,1-54.38,43.64h0a141.81,141.81,0,0,1-91.59,8.64h0c49.87,101.09,151.93,152.83,231,117.12h0c79-35.89,106.56-146.36,62.44-250.05h0a140.51,140.51,0,0,1-66.54,63"/></g></g></mask><mask id="mask-5-2" x="125.29" y="247.55" width="314.43" height="284.91" maskUnits="userSpaceOnUse"><g transform="translate(0 -546.2)"><g id="mask-11"><path id="path-10" class="cls-1" d="M352.19,880.37a141.71,141.71,0,0,1-68.76,11.89h0a14.06,14.06,0,0,1-4.91,5.72h0a14,14,0,0,1-7.26,0h0a140.77,140.77,0,0,1-54.38,43.64h0a141.81,141.81,0,0,1-91.59,8.64h0c49.87,101.09,151.93,152.83,231,117.12h0c79-35.89,106.56-146.36,62.44-250.05h0a140.51,140.51,0,0,1-66.54,63"/></g></g></mask><mask id="mask-7-2" x="82.22" y="271.13" width="357.5" height="261.34" maskUnits="userSpaceOnUse"><g transform="translate(0 -546.2)"><g id="mask-15"><path id="path-14" class="cls-1" d="M352.19,880.37a141.71,141.71,0,0,1-68.76,11.89h0a14.06,14.06,0,0,1-4.91,5.72h0a14,14,0,0,1-7.26,0h0a140.77,140.77,0,0,1-54.38,43.64h0a141.81,141.81,0,0,1-91.59,8.64h0c49.87,101.09,151.93,152.83,231,117.12h0c79-35.89,106.56-146.36,62.44-250.05h0a140.51,140.51,0,0,1-66.54,63"/></g></g></mask><mask id="mask-9-2" x="125.29" y="265.97" width="314.43" height="266.5" maskUnits="userSpaceOnUse"><g transform="translate(0 -546.2)"><g id="mask-19"><path id="path-18" class="cls-1" d="M352.19,880.37a141.71,141.71,0,0,1-68.76,11.89h0a14.06,14.06,0,0,1-4.91,5.72h0a14,14,0,0,1-7.26,0h0a140.77,140.77,0,0,1-54.38,43.64h0a141.81,141.81,0,0,1-91.59,8.64h0c49.87,101.09,151.93,152.83,231,117.12h0c79-35.89,106.56-146.36,62.44-250.05h0a140.51,140.51,0,0,1-66.54,63"/></g></g></mask><mask id="mask-13-2" x="125.29" y="271.13" width="316.09" height="261.34" maskUnits="userSpaceOnUse"><g transform="translate(0 -546.2)"><g id="mask-27"><path id="path-26" class="cls-1" d="M352.19,880.37a141.71,141.71,0,0,1-68.76,11.89h0a14.06,14.06,0,0,1-4.91,5.72h0a14,14,0,0,1-7.26,0h0a140.77,140.77,0,0,1-54.38,43.64h0a141.81,141.81,0,0,1-91.59,8.64h0c49.87,101.09,151.93,152.83,231,117.12h0c79-35.89,106.56-146.36,62.44-250.05h0a140.51,140.51,0,0,1-66.54,63"/></g></g></mask><mask id="mask-16" x="113.95" y="271.13" width="325.77" height="261.34" maskUnits="userSpaceOnUse"><g transform="translate(0 -546.2)"><g id="mask-33"><path id="path-32" class="cls-1" d="M352.19,880.37a141.71,141.71,0,0,1-68.76,11.89h0a14.06,14.06,0,0,1-4.91,5.72h0a14,14,0,0,1-7.26,0h0a140.77,140.77,0,0,1-54.38,43.64h0a141.81,141.81,0,0,1-91.59,8.64h0c49.87,101.09,151.93,152.83,231,117.12h0c79-35.89,106.56-146.36,62.44-250.05h0a140.51,140.51,0,0,1-66.54,63"/></g></g></mask><mask id="mask-22" x="125.29" y="271.13" width="360.53" height="261.34" maskUnits="userSpaceOnUse"><g transform="translate(0 -546.2)"><g id="mask-45"><path id="path-44" class="cls-1" d="M352.19,880.37a141.71,141.71,0,0,1-68.76,11.89h0a14.06,14.06,0,0,1-4.91,5.72h0a14,14,0,0,1-7.26,0h0a140.77,140.77,0,0,1-54.38,43.64h0a141.81,141.81,0,0,1-91.59,8.64h0c49.87,101.09,151.93,152.83,231,117.12h0c79-35.89,106.56-146.36,62.44-250.05h0a140.51,140.51,0,0,1-66.54,63"/></g></g></mask><mask id="mask-27-2" x="125.29" y="271.13" width="349.86" height="261.34" maskUnits="userSpaceOnUse"><g transform="translate(0 -546.2)"><g id="mask-55"><path id="path-54" class="cls-1" d="M352.19,880.37a141.71,141.71,0,0,1-68.76,11.89h0a14.06,14.06,0,0,1-4.91,5.72h0a14,14,0,0,1-7.26,0h0a140.77,140.77,0,0,1-54.38,43.64h0a141.81,141.81,0,0,1-91.59,8.64h0c49.87,101.09,151.93,152.83,231,117.12h0c79-35.89,106.56-146.36,62.44-250.05h0a140.51,140.51,0,0,1-66.54,63"/></g></g></mask><mask id="mask-29-2" x="125.29" y="271.13" width="314.43" height="266.86" maskUnits="userSpaceOnUse"><g transform="translate(0 -546.2)"><g id="mask-59"><path id="path-58" class="cls-1" d="M352.19,880.37a141.71,141.71,0,0,1-68.76,11.89h0a14.06,14.06,0,0,1-4.91,5.72h0a14,14,0,0,1-7.26,0h0a140.77,140.77,0,0,1-54.38,43.64h0a141.81,141.81,0,0,1-91.59,8.64h0c49.87,101.09,151.93,152.83,231,117.12h0c79-35.89,106.56-146.36,62.44-250.05h0a140.51,140.51,0,0,1-66.54,63"/></g></g></mask><mask id="mask-30" x="125.29" y="271.13" width="314.43" height="262.26" maskUnits="userSpaceOnUse"><g transform="translate(0 -546.2)"><g id="mask-61"><path id="path-60" class="cls-1" d="M352.19,880.37a141.71,141.71,0,0,1-68.76,11.89h0a14.06,14.06,0,0,1-4.91,5.72h0a14,14,0,0,1-7.26,0h0a140.77,140.77,0,0,1-54.38,43.64h0a141.81,141.81,0,0,1-91.59,8.64h0c49.87,101.09,151.93,152.83,231,117.12h0c79-35.89,106.56-146.36,62.44-250.05h0a140.51,140.51,0,0,1-66.54,63"/></g></g></mask><mask id="mask-31-2" x="125.29" y="271.13" width="390.02" height="261.34" maskUnits="userSpaceOnUse"><g transform="translate(0 -546.2)"><g id="mask-63"><path id="path-62" class="cls-1" d="M352.19,880.37a141.71,141.71,0,0,1-68.76,11.89h0a14.06,14.06,0,0,1-4.91,5.72h0a14,14,0,0,1-7.26,0h0a140.77,140.77,0,0,1-54.38,43.64h0a141.81,141.81,0,0,1-91.59,8.64h0c49.87,101.09,151.93,152.83,231,117.12h0c79-35.89,106.56-146.36,62.44-250.05h0a140.51,140.51,0,0,1-66.54,63"/></g></g></mask><mask id="mask-32" x="125.29" y="271.13" width="321.24" height="261.34" maskUnits="userSpaceOnUse"><g transform="translate(0 -546.2)"><g id="mask-65"><path id="path-64" class="cls-1" d="M352.19,880.37a141.71,141.71,0,0,1-68.76,11.89h0a14.06,14.06,0,0,1-4.91,5.72h0a14,14,0,0,1-7.26,0h0a140.77,140.77,0,0,1-54.38,43.64h0a141.81,141.81,0,0,1-91.59,8.64h0c49.87,101.09,151.93,152.83,231,117.12h0c79-35.89,106.56-146.36,62.44-250.05h0a140.51,140.51,0,0,1-66.54,63"/></g></g></mask><mask id="mask-33-2" x="125.29" y="271.13" width="314.43" height="293.39" maskUnits="userSpaceOnUse"><g transform="translate(0 -546.2)"><g id="mask-67"><path id="path-66" class="cls-1" d="M352.19,880.37a141.71,141.71,0,0,1-68.76,11.89h0a14.06,14.06,0,0,1-4.91,5.72h0a14,14,0,0,1-7.26,0h0a140.77,140.77,0,0,1-54.38,43.64h0a141.81,141.81,0,0,1-91.59,8.64h0c49.87,101.09,151.93,152.83,231,117.12h0c79-35.89,106.56-146.36,62.44-250.05h0a140.51,140.51,0,0,1-66.54,63"/></g></g></mask><mask id="mask-34" x="125.29" y="271.13" width="314.43" height="324.53" maskUnits="userSpaceOnUse"><g transform="translate(0 -546.2)"><g id="mask-69"><path id="path-68" class="cls-1" d="M352.19,880.37a141.71,141.71,0,0,1-68.76,11.89h0a14.06,14.06,0,0,1-4.91,5.72h0a14,14,0,0,1-7.26,0h0a140.77,140.77,0,0,1-54.38,43.64h0a141.81,141.81,0,0,1-91.59,8.64h0c49.87,101.09,151.93,152.83,231,117.12h0c79-35.89,106.56-146.36,62.44-250.05h0a140.51,140.51,0,0,1-66.54,63"/></g></g></mask><mask id="mask-35-2" x="125.29" y="271.13" width="314.43" height="280.67" maskUnits="userSpaceOnUse"><g transform="translate(0 -546.2)"><g id="mask-71"><path id="path-70" class="cls-1" d="M352.19,880.37a141.71,141.71,0,0,1-68.76,11.89h0a14.06,14.06,0,0,1-4.91,5.72h0a14,14,0,0,1-7.26,0h0a140.77,140.77,0,0,1-54.38,43.64h0a141.81,141.81,0,0,1-91.59,8.64h0c49.87,101.09,151.93,152.83,231,117.12h0c79-35.89,106.56-146.36,62.44-250.05h0a140.51,140.51,0,0,1-66.54,63"/></g></g></mask><mask id="mask-36" x="125.29" y="271.13" width="379.35" height="261.34" maskUnits="userSpaceOnUse"><g transform="translate(0 -546.2)"><g id="mask-73"><path id="path-72" class="cls-1" d="M352.19,880.37a141.71,141.71,0,0,1-68.76,11.89h0a14.06,14.06,0,0,1-4.91,5.72h0a14,14,0,0,1-7.26,0h0a140.77,140.77,0,0,1-54.38,43.64h0a141.81,141.81,0,0,1-91.59,8.64h0c49.87,101.09,151.93,152.83,231,117.12h0c79-35.89,106.56-146.36,62.44-250.05h0a140.51,140.51,0,0,1-66.54,63"/></g></g></mask><mask id="mask-37-2" x="125.29" y="271.13" width="314.43" height="311.81" maskUnits="userSpaceOnUse"><g transform="translate(0 -546.2)"><g id="mask-75"><path id="path-74" class="cls-1" d="M352.19,880.37a141.71,141.71,0,0,1-68.76,11.89h0a14.06,14.06,0,0,1-4.91,5.72h0a14,14,0,0,1-7.26,0h0a140.77,140.77,0,0,1-54.38,43.64h0a141.81,141.81,0,0,1-91.59,8.64h0c49.87,101.09,151.93,152.83,231,117.12h0c79-35.89,106.56-146.36,62.44-250.05h0a140.51,140.51,0,0,1-66.54,63"/></g></g></mask><mask id="mask-38" x="125.29" y="271.13" width="314.43" height="342.94" maskUnits="userSpaceOnUse"><g transform="translate(0 -546.2)"><g id="mask-77"><path id="path-76" class="cls-1" d="M283.43,892.26a14.06,14.06,0,0,1-4.91,5.72,14,14,0,0,1-7.26,0,141,141,0,0,1-146,52.28c49.87,101.09,151.93,152.83,231,117.12,79-35.89,106.56-146.36,62.44-250.05A139.59,139.59,0,0,1,283.43,892.26Z"/></g></g></mask></defs><title>3</title><g id="Page-1"><g class="cls-2"><path id="Fill-1" d="M1564.29,788.29c10.88,0,27.46,3.66,34.2,5.75v75.24c0,51.21-25.39,102.93-59.6,102.93-37.83,0-41.46-44.41-41.46-93,0-52.77,15-90.92,66.85-90.92h0Zm-704.42,0c10.88,0,27.46,3.66,34.2,5.75v75.24c0,51.21-25.39,102.93-59.59,102.93-37.83,0-41.46-44.41-41.46-93,0-52.77,15-90.92,66.84-90.92h0Zm159.69-37.62V924.13c0,55.38,21.24,89.87,75.65,89.87,36.79,0,73.58-16.2,92.24-57,4.66,38.14,25.91,58,25.91,58l46.12-18.82s-24.87-28.74-24.87-111.29V750.67h-59.07V878.16c0,55.38-32.13,92-62.7,92-24.87,0-34.2-18.29-34.2-47V750.67h-59.07Zm538-4.18c-73.58,0-123.85,58.52-123.85,137.94,0,78.38,30.57,129.57,95.34,129.57,44,0,69.43-21.42,80.84-63.22,2.59,42.32,26.43,64.27,26.43,64.27l46.12-18.82s-24.87-28.74-24.87-111.29V761.64c-4.66-1-58.55-15.15-100-15.15h0Zm-704.42,0c-73.58,0-123.85,58.52-123.85,137.94,0,78.38,30.58,129.57,95.35,129.57,44,0,69.43-21.42,80.84-63.22,2.59,42.32,26.43,64.27,26.43,64.27L978,996.24s-24.87-28.74-24.87-111.29V761.64c-4.67-1-58.56-15.15-100-15.15h0ZM1363,631.54l-59.07,11V954.44c0,34,18.65,58.52,57.52,58.52,33.16,0,54.41-9.41,54.41-9.41l-7.25-37.62a105.71,105.71,0,0,1-27.46,4.18c-11.92,0-18.14-5.75-18.14-21.42V631.54h0Z" transform="translate(0 -546.2)"/></g></g><g id="Page-1-2" data-name="Page-1"><g id="Group-3"><g class="cls-3"><path id="Fill-1-2" data-name="Fill-1" d="M418.73,817.33c44.12,103.7,16.53,214.16-62.45,250.06-79.07,35.71-181.12-16-231-117.12a141,141,0,0,0,146-52.28,14,14,0,0,0,7.26,0,14.17,14.17,0,0,0,4.92-5.72,139.57,139.57,0,0,0,135.29-74.94h0ZM248.52,832.6c10.84,3.49,36.34,9.24,37.29,16.41,0.67,9.22.17,38.5-9.46,44.25-10.69,3.45-33.26-15.39-39.83-21.93-4.82-5.42,7.54-28.3,12-38.73h0Zm50.06-84.46a7.21,7.21,0,0,1,9.53,3.54,7.12,7.12,0,0,1-3.56,9.46A7.21,7.21,0,0,1,295,757.6a7.12,7.12,0,0,1,3.56-9.46h0ZM149.63,815.57a7.22,7.22,0,0,1,9.53,3.54,7.13,7.13,0,0,1-3.56,9.46,7.21,7.21,0,0,1-9.53-3.54,7.12,7.12,0,0,1,3.56-9.46h0ZM309,732.7a39.15,39.15,0,0,0,3.58,72.64h0a39.57,39.57,0,0,0,50.33-24.08h0a39.17,39.17,0,0,0-24.24-50h0A39.74,39.74,0,0,0,309,732.7h0ZM160,800.13a39.14,39.14,0,0,0,3.57,72.64h0A39.58,39.58,0,0,0,214,848.68h0a39.18,39.18,0,0,0-24.24-50h0A39.74,39.74,0,0,0,160,800.13h0Zm130-76.94a58.77,58.77,0,0,1,43.85-2.13,57.9,57.9,0,0,1,35.83,73.89,58.49,58.49,0,0,1-74.39,35.59,57.86,57.86,0,0,1-5.29-107.36h0ZM141.14,790.62A58.72,58.72,0,0,1,185,788.49a58.49,58.49,0,1,1-43.84,2.13h0Zm147.23-71.09A61.88,61.88,0,0,0,294,834.35h0a62.56,62.56,0,0,0,79.57-38.07,61.93,61.93,0,0,0-38.33-79h0a62.82,62.82,0,0,0-46.9,2.28h0ZM139.43,786.95a61.88,61.88,0,0,0,5.66,114.83h0a62.56,62.56,0,0,0,79.57-38.07,61.93,61.93,0,0,0-38.33-79h0a62.82,62.82,0,0,0-46.9,2.28h0Zm-24.89-48.76A97.94,97.94,0,0,1,207.86,744a97.37,97.37,0,0,1,4.26-17c17.9-50.84,73.91-77.64,125.1-59.85h0c51.18,17.78,78.16,73.41,60.26,124.26-15.66,44.39-61,71.36-107.79,64.11,0-3.54-.07-6.59-0.22-8.7-1.1-8.28-30.57-14.93-43.1-19-5.15,12.05-19.44,38.51-13.87,44.76,1.5,1.49,3.74,3.56,6.43,5.84a98.51,98.51,0,0,1-115.48,40.23c-51.19-17.79-78.16-73.42-60.26-124.26a97.75,97.75,0,0,1,51.37-56.27h0ZM1.71,678.08C-4.8,725,8,771.49,28.11,815.11A149,149,0,0,0,89.4,944.81q-0.38,6.54-.22,13A115.71,115.71,0,0,0,53.32,998c-25.14,48.13-12.7,111,32.63,165a469.35,469.35,0,0,0,34.37-114.47c35.93,46,97.57,70.31,164.95,65.07,2,11.32,9.81,25.81,11.27,31.23-4.44,8.18-12,21.09-12.61,29.05-0.79,9.52,14-6.2,18-9.3,2.72,4.48,3.75,16.94,10.24,18,7.39,1.16,7.23-17.66,5.64-23.68,4.36,1.76,11.83,7.26,15.43,3.79,3.19-3.07-.25-9.16-5.82-12.75a173.15,173.15,0,0,0-16.66-9.35c-3.51-6.59-8.92-19-14.58-27.95a245.71,245.71,0,0,0,133.73-60.67c3.08,10.13,9,22.4,11.71,29.39a168.64,168.64,0,0,0-3.83,18.62c-0.93,6.53,1.44,13.1,5.87,12.74,5-.42,5.72-9.63,7.25-14.06,3.54,5.14,17.73,17.62,21.7,11.31,3.48-5.53-5.31-14.49-6.94-19.46,5-1,26.63-1.74,18.88-7.4-6.49-4.73-21.22-7.57-30.35-9.61-3.14-4.63-9-19.88-16.25-28.83C486.14,997.41,508,935.14,496.47,878a476.34,476.34,0,0,0,109.69,49.44c-11.25-69.38-50.87-120-103.93-132.69a116.93,116.93,0,0,0-54.05.54q-4.83-4.42-10.06-8.46A148.15,148.15,0,0,0,380,656.17C360,612.35,333,572.14,293,546.2c-14.42,21.28-29.74,47-35.81,71.15a246.11,246.11,0,0,0-178,80.54c-22.31-11.27-51.9-16.67-77.52-19.82h0Z" transform="translate(0 -546.2)"/></g></g><g id="Group-112"><g id="Group-6"><g class="cls-4"><path id="Fill-4" d="M270.33,824.9c-6.8,10.6-11.66,14.91-21.54,19.59-10,4.33-16.49,5.15-29,3.29,6.51,13.78,22.8,12.9,34.37,8.4,11-5.73,22.38-17.36,16.18-31.28" transform="translate(0 -546.2)"/></g></g><g id="Group-9"><g class="cls-5"><path id="Fill-7" d="M407.89,762.62c-6.8,10.6-11.66,14.91-21.54,19.59-10,4.33-16.49,5.15-29,3.29,6.51,13.78,22.8,12.9,34.37,8.4,11-5.73,22.38-17.36,16.18-31.28" transform="translate(0 -546.2)"/></g></g><g id="Group-12"><g class="cls-6"><path id="Fill-10" d="M339.11,793.76c-6.8,10.6-11.66,14.91-21.54,19.59-10,4.33-16.49,5.15-29,3.29,6.51,13.78,22.8,12.9,34.37,8.4,11-5.73,22.38-17.36,16.18-31.28" transform="translate(0 -546.2)"/></g></g><g id="Group-15"><g class="cls-4"><path id="Fill-13" d="M201.55,856c-6.8,10.6-11.66,14.91-21.54,19.59-10,4.33-16.49,5.15-29,3.29,6.51,13.78,22.8,12.9,34.37,8.4,11-5.73,22.38-17.36,16.18-31.28" transform="translate(0 -546.2)"/></g></g><g id="Group-18"><g class="cls-7"><path id="Fill-16" d="M132.77,887.17c-6.8,10.6-11.66,14.91-21.54,19.59-10,4.33-16.49,5.15-29,3.29,6.51,13.78,22.8,12.9,34.37,8.4,11-5.73,22.38-17.36,16.18-31.28" transform="translate(0 -546.2)"/></g></g><g id="Group-21"><g class="cls-4"><path id="Fill-19" d="M328.44,843.31c-6.8,10.6-11.66,14.91-21.54,19.59-10,4.33-16.49,5.15-29,3.29,6.51,13.78,22.8,12.9,34.37,8.4,11-5.73,22.38-17.36,16.18-31.28" transform="translate(0 -546.2)"/></g></g><g id="Group-24"><g class="cls-8"><path id="Fill-22" d="M397.22,812.17c-6.8,10.6-11.66,14.91-21.54,19.59-10,4.33-16.49,5.15-29,3.29,6.51,13.78,22.8,12.9,34.37,8.4,11-5.73,22.38-17.36,16.18-31.28" transform="translate(0 -546.2)"/></g></g><g id="Group-27"><g class="cls-4"><path id="Fill-25" d="M259.65,874.44C252.85,885,248,889.35,238.12,894c-10,4.33-16.49,5.15-29,3.29,6.51,13.78,22.8,12.9,34.37,8.4,11-5.73,22.38-17.36,16.18-31.28" transform="translate(0 -546.2)"/></g></g><g id="Group-30"><g class="cls-4"><path id="Fill-28" d="M190.87,905.58c-6.8,10.6-11.66,14.91-21.54,19.59-10,4.33-16.49,5.15-29,3.29,6.51,13.78,22.8,12.9,34.37,8.4,11-5.73,22.38-17.36,16.18-31.28" transform="translate(0 -546.2)"/></g></g><g id="Group-33"><g class="cls-4"><path id="Fill-31" d="M302.06,900c-6.8,10.6-11.66,14.91-21.54,19.59-10,4.33-16.49,5.15-29,3.29,6.51,13.78,22.8,12.9,34.37,8.4,11-5.73,22.38-17.36,16.18-31.28" transform="translate(0 -546.2)"/></g></g><g id="Group-36"><g class="cls-9"><path id="Fill-34" d="M439.62,837.69c-6.8,10.6-11.66,14.91-21.54,19.59-10,4.33-16.49,5.15-29,3.29,6.51,13.78,22.8,12.9,34.37,8.4,11-5.73,22.38-17.36,16.18-31.28" transform="translate(0 -546.2)"/></g></g><g id="Group-39"><g class="cls-4"><path id="Fill-37" d="M370.84,868.82c-6.8,10.6-11.66,14.91-21.54,19.59-10,4.33-16.49,5.15-29,3.29,6.51,13.78,22.8,12.9,34.37,8.4,11-5.73,22.38-17.36,16.18-31.28" transform="translate(0 -546.2)"/></g></g><g id="Group-42"><g class="cls-4"><path id="Fill-40" d="M233.28,931.1c-6.8,10.6-11.66,14.91-21.54,19.59-10,4.33-16.49,5.15-29,3.29,6.51,13.78,22.8,12.9,34.37,8.4,11-5.73,22.38-17.36,16.18-31.28" transform="translate(0 -546.2)"/></g></g><g id="Group-45"><g class="cls-10"><path id="Fill-43" d="M164.5,962.23c-6.8,10.6-11.66,14.91-21.54,19.59-10,4.33-16.49,5.15-29,3.29,6.51,13.78,22.8,12.9,34.37,8.4,11-5.73,22.38-17.36,16.18-31.28" transform="translate(0 -546.2)"/></g></g><g id="Group-48"><g class="cls-4"><path id="Fill-46" d="M360.17,918.37c-6.8,10.6-11.66,14.91-21.54,19.59-10,4.33-16.49,5.15-29,3.29,6.51,13.78,22.8,12.9,34.37,8.4,11-5.73,22.38-17.36,16.18-31.28" transform="translate(0 -546.2)"/></g></g><g id="Group-51"><g class="cls-4"><path id="Fill-49" d="M428.95,887.24c-6.8,10.6-11.66,14.91-21.54,19.59-10,4.33-16.49,5.15-29,3.29,6.51,13.78,22.8,12.9,34.37,8.4,11-5.73,22.38-17.36,16.18-31.28" transform="translate(0 -546.2)"/></g></g><g id="Group-54"><g class="cls-4"><path id="Fill-52" d="M291.39,949.51c-6.8,10.6-11.66,14.91-21.54,19.59-10,4.33-16.49,5.15-29,3.29,6.51,13.78,22.8,12.9,34.37,8.4,11-5.73,22.38-17.36,16.18-31.28" transform="translate(0 -546.2)"/></g></g><g id="Group-57"><g class="cls-4"><path id="Fill-55" d="M222.6,980.64c-6.8,10.6-11.66,14.91-21.54,19.59-10,4.33-16.49,5.15-29,3.29,6.51,13.78,22.8,12.9,34.37,8.4,11-5.73,22.38-17.36,16.18-31.28" transform="translate(0 -546.2)"/></g></g><g id="Group-60"><g class="cls-4"><path id="Fill-58" d="M346.5,969.27c-6.8,10.6-11.66,14.91-21.54,19.59-10,4.33-16.49,5.15-29,3.29,6.51,13.78,22.8,12.9,34.37,8.4,11-5.73,22.38-17.36,16.18-31.28" transform="translate(0 -546.2)"/></g></g><g id="Group-63"><g class="cls-11"><path id="Fill-61" d="M484.06,907c-6.8,10.6-11.66,14.91-21.54,19.59-10,4.33-16.49,5.15-29,3.29,6.51,13.78,22.8,12.9,34.37,8.4,11-5.73,22.38-17.36,16.18-31.28" transform="translate(0 -546.2)"/></g></g><g id="Group-66"><g class="cls-4"><path id="Fill-64" d="M415.28,938.14c-6.8,10.6-11.66,14.91-21.54,19.59-10,4.33-16.49,5.15-29,3.29,6.51,13.78,22.8,12.9,34.37,8.4,11-5.73,22.38-17.36,16.18-31.28" transform="translate(0 -546.2)"/></g></g><g id="Group-69"><g class="cls-4"><path id="Fill-67" d="M277.72,1000.41c-6.8,10.6-11.66,14.91-21.54,19.59-10,4.33-16.49,5.15-29,3.29,6.51,13.78,22.8,12.9,34.37,8.4,11-5.73,22.38-17.36,16.18-31.28" transform="translate(0 -546.2)"/></g></g><g id="Group-72"><g class="cls-4"><path id="Fill-70" d="M208.94,1031.54c-6.8,10.6-11.66,14.91-21.54,19.59-10,4.33-16.49,5.15-29,3.29,6.51,13.78,22.8,12.9,34.37,8.4,11-5.73,22.38-17.36,16.18-31.28" transform="translate(0 -546.2)"/></g></g><g id="Group-75"><g class="cls-4"><path id="Fill-73" d="M404.61,987.68c-6.8,10.6-11.66,14.91-21.54,19.59-10,4.33-16.49,5.15-29,3.29,6.51,13.78,22.8,12.9,34.37,8.4,11-5.73,22.38-17.36,16.18-31.28" transform="translate(0 -546.2)"/></g></g><g id="Group-78"><g class="cls-12"><path id="Fill-76" d="M473.39,956.55c-6.8,10.6-11.66,14.91-21.54,19.59-10,4.33-16.49,5.15-29,3.29,6.51,13.78,22.8,12.9,34.37,8.4,11-5.73,22.38-17.36,16.18-31.28" transform="translate(0 -546.2)"/></g></g><g id="Group-81"><g class="cls-4"><path id="Fill-79" d="M335.83,1018.82c-6.8,10.6-11.66,14.91-21.54,19.59-10,4.33-16.49,5.15-29,3.29,6.51,13.78,22.8,12.9,34.37,8.4,11-5.73,22.38-17.36,16.18-31.28" transform="translate(0 -546.2)"/></g></g><g id="Group-84"><g class="cls-13"><path id="Fill-82" d="M267,1050c-6.8,10.6-11.66,14.91-21.54,19.59-10,4.33-16.49,5.15-29,3.29,6.51,13.78,22.8,12.9,34.37,8.4,11-5.73,22.38-17.36,16.18-31.28" transform="translate(0 -546.2)"/></g></g><g id="Group-87"><g class="cls-14"><path id="Fill-85" d="M376,1045.35c-6.8,10.6-11.66,14.91-21.54,19.59-10,4.33-16.49,5.15-29,3.29,6.51,13.78,22.8,12.9,34.37,8.4,11-5.73,22.38-17.36,16.18-31.28" transform="translate(0 -546.2)"/></g></g><g id="Group-90"><g class="cls-15"><path id="Fill-88" d="M513.55,983.08c-6.8,10.6-11.66,14.91-21.54,19.59-10,4.33-16.49,5.15-29,3.29,6.51,13.78,22.8,12.9,34.37,8.4,11-5.73,22.38-17.36,16.18-31.28" transform="translate(0 -546.2)"/></g></g><g id="Group-93"><g class="cls-16"><path id="Fill-91" d="M444.77,1014.22c-6.8,10.6-11.66,14.91-21.54,19.59-10,4.33-16.49,5.15-29,3.29,6.51,13.78,22.8,12.9,34.37,8.4,11-5.73,22.38-17.36,16.18-31.28" transform="translate(0 -546.2)"/></g></g><g id="Group-96"><g class="cls-17"><path id="Fill-94" d="M307.21,1076.49c-6.8,10.6-11.66,14.91-21.54,19.59-10,4.33-16.49,5.15-29,3.29,6.51,13.78,22.8,12.9,34.37,8.4,11-5.73,22.38-17.36,16.18-31.28" transform="translate(0 -546.2)"/></g></g><g id="Group-99"><g class="cls-18"><path id="Fill-97" d="M238.43,1107.62c-6.8,10.6-11.66,14.91-21.54,19.59-10,4.33-16.49,5.15-29,3.29,6.51,13.78,22.8,12.9,34.37,8.4,11-5.73,22.38-17.36,16.18-31.28" transform="translate(0 -546.2)"/></g></g><g id="Group-102"><g class="cls-19"><path id="Fill-100" d="M434.09,1063.76c-6.8,10.6-11.66,14.91-21.54,19.59-10,4.33-16.49,5.15-29,3.29,6.51,13.78,22.8,12.9,34.37,8.4,11-5.73,22.38-17.36,16.18-31.28" transform="translate(0 -546.2)"/></g></g><g id="Group-105"><g class="cls-20"><path id="Fill-103" d="M502.88,1032.63c-6.8,10.6-11.66,14.91-21.54,19.59-10,4.33-16.49,5.15-29,3.29,6.51,13.78,22.8,12.9,34.37,8.4,11-5.73,22.38-17.36,16.18-31.28" transform="translate(0 -546.2)"/></g></g><g id="Group-108"><g class="cls-21"><path id="Fill-106" d="M365.31,1094.9c-6.8,10.6-11.66,14.91-21.54,19.59-10,4.33-16.49,5.15-29,3.29,6.51,13.78,22.8,12.9,34.37,8.4,11-5.73,22.38-17.36,16.18-31.28" transform="translate(0 -546.2)"/></g></g><g id="Group-111"><g class="cls-22"><path id="Fill-109" d="M296.53,1126c-6.8,10.6-11.66,14.91-21.54,19.59-10,4.33-16.49,5.15-29,3.29,6.51,13.78,22.8,12.9,34.37,8.4,11-5.73,22.38-17.36,16.18-31.28" transform="translate(0 -546.2)"/></g></g></g></g></svg>