<?xml version="1.0" encoding="utf-8"?>
<!-- Generator: Adobe Illustrator 19.0.0, SVG Export Plug-In . SVG Version: 6.00 Build 0)  -->
<svg version="1.1" id="Layer_1" xmlns="http://www.w3.org/2000/svg" xmlns:xlink="http://www.w3.org/1999/xlink" x="0px" y="0px"
	 viewBox="590 -500 1792 1792" style="enable-background:new 590 -500 1792 1792;" xml:space="preserve">
<style type="text/css">
	.st0{filter:url(#Adobe_OpacityMaskFilter);}
	.st1{fill:#FFFFFF;}
	.st2{mask:url(#mask-3_2_);fill:#689740;}
	.st3{filter:url(#Adobe_OpacityMaskFilter_1_);}
	.st4{mask:url(#mask-5_2_);fill:#689740;}
	.st5{filter:url(#Adobe_OpacityMaskFilter_2_);}
	.st6{mask:url(#mask-7_2_);fill:#92C43E;}
	.st7{filter:url(#Adobe_OpacityMaskFilter_3_);}
	.st8{mask:url(#mask-9_2_);fill:#92C43E;}
	.st9{filter:url(#Adobe_OpacityMaskFilter_4_);}
	.st10{mask:url(#mask-11_2_);fill:#92C43E;}
	.st11{filter:url(#Adobe_OpacityMaskFilter_5_);}
	.st12{mask:url(#mask-13_2_);fill:#92C43E;}
	.st13{filter:url(#Adobe_OpacityMaskFilter_6_);}
	.st14{mask:url(#mask-15_2_);fill:#92C43E;}
	.st15{filter:url(#Adobe_OpacityMaskFilter_7_);}
	.st16{mask:url(#mask-17_2_);fill:#92C43E;}
	.st17{filter:url(#Adobe_OpacityMaskFilter_8_);}
	.st18{mask:url(#mask-19_2_);fill:#92C43E;}
	.st19{filter:url(#Adobe_OpacityMaskFilter_9_);}
	.st20{mask:url(#mask-21_2_);fill:#92C43E;}
	.st21{filter:url(#Adobe_OpacityMaskFilter_10_);}
	.st22{mask:url(#mask-23_2_);fill:#92C43E;}
	.st23{filter:url(#Adobe_OpacityMaskFilter_11_);}
	.st24{mask:url(#mask-25_2_);fill:#689740;}
	.st25{filter:url(#Adobe_OpacityMaskFilter_12_);}
	.st26{mask:url(#mask-27_2_);fill:#689740;}
	.st27{filter:url(#Adobe_OpacityMaskFilter_13_);}
	.st28{mask:url(#mask-29_2_);fill:#689740;}
	.st29{filter:url(#Adobe_OpacityMaskFilter_14_);}
	.st30{mask:url(#mask-31_2_);fill:#689740;}
	.st31{filter:url(#Adobe_OpacityMaskFilter_15_);}
	.st32{mask:url(#mask-33_2_);fill:#689740;}
	.st33{filter:url(#Adobe_OpacityMaskFilter_16_);}
	.st34{mask:url(#mask-35_2_);fill:#689740;}
	.st35{filter:url(#Adobe_OpacityMaskFilter_17_);}
	.st36{mask:url(#mask-37_2_);fill:#689740;}
	.st37{filter:url(#Adobe_OpacityMaskFilter_18_);}
	.st38{mask:url(#mask-39_2_);fill:#689740;}
	.st39{filter:url(#Adobe_OpacityMaskFilter_19_);}
	.st40{mask:url(#mask-41_2_);fill:#689740;}
	.st41{filter:url(#Adobe_OpacityMaskFilter_20_);}
	.st42{mask:url(#mask-43_2_);fill:#689740;}
	.st43{filter:url(#Adobe_OpacityMaskFilter_21_);}
	.st44{mask:url(#mask-45_2_);fill:#689740;}
	.st45{filter:url(#Adobe_OpacityMaskFilter_22_);}
	.st46{mask:url(#mask-47_2_);fill:#649A41;}
	.st47{filter:url(#Adobe_OpacityMaskFilter_23_);}
	.st48{mask:url(#mask-49_2_);fill:#649A41;}
	.st49{filter:url(#Adobe_OpacityMaskFilter_24_);}
	.st50{mask:url(#mask-51_2_);fill:#689740;}
	.st51{filter:url(#Adobe_OpacityMaskFilter_25_);}
	.st52{mask:url(#mask-53_2_);fill:#689740;}
	.st53{filter:url(#Adobe_OpacityMaskFilter_26_);}
	.st54{mask:url(#mask-55_2_);fill:#689740;}
	.st55{filter:url(#Adobe_OpacityMaskFilter_27_);}
	.st56{mask:url(#mask-57_2_);fill:#689740;}
	.st57{filter:url(#Adobe_OpacityMaskFilter_28_);}
	.st58{mask:url(#mask-59_2_);fill:#649A41;}
	.st59{filter:url(#Adobe_OpacityMaskFilter_29_);}
	.st60{mask:url(#mask-61_2_);fill:#649A41;}
	.st61{filter:url(#Adobe_OpacityMaskFilter_30_);}
	.st62{mask:url(#mask-63_2_);fill:#92C43E;}
	.st63{filter:url(#Adobe_OpacityMaskFilter_31_);}
	.st64{mask:url(#mask-65_2_);fill:#689740;}
	.st65{filter:url(#Adobe_OpacityMaskFilter_32_);}
	.st66{mask:url(#mask-67_2_);fill:#92C43E;}
	.st67{filter:url(#Adobe_OpacityMaskFilter_33_);}
	.st68{mask:url(#mask-69_2_);fill:#92C43E;}
	.st69{filter:url(#Adobe_OpacityMaskFilter_34_);}
	.st70{mask:url(#mask-71_2_);fill:#92C43E;}
	.st71{filter:url(#Adobe_OpacityMaskFilter_35_);}
	.st72{mask:url(#mask-73_2_);fill:#92C43E;}
	.st73{filter:url(#Adobe_OpacityMaskFilter_36_);}
	.st74{mask:url(#mask-75_2_);fill:#92C43E;}
	.st75{filter:url(#Adobe_OpacityMaskFilter_37_);}
	.st76{mask:url(#mask-77_2_);fill:#92C43E;}
</style>
<g id="XMLID_391_">
	<defs>
		<filter id="Adobe_OpacityMaskFilter" filterUnits="userSpaceOnUse" x="1380.5" y="176.6" width="898.2" height="361.4">
			<feColorMatrix  type="matrix" values="1 0 0 0 0  0 1 0 0 0  0 0 1 0 0  0 0 0 1 0"/>
		</filter>
	</defs>
	<mask maskUnits="userSpaceOnUse" x="1380.5" y="176.6" width="898.2" height="361.4" id="mask-3_2_">
		<g id="XMLID_178_" class="st0">
			<path id="path-2_2_" class="st1" d="M1380.5,176.6h898.2V538h-898.2V176.6z"/>
		</g>
	</mask>
	<path id="Fill-1" sketch:type="MSShapeGroup" class="st2" d="M2167.4,324.3c10.3,0,25.9,3.4,32.2,5.4v70.9c0,48.3-23.9,97-56.2,97
		c-35.6,0-39.1-41.9-39.1-87.6C2104.4,360.3,2118.5,324.3,2167.4,324.3L2167.4,324.3z M1503.6,324.3c10.3,0,25.9,3.4,32.2,5.4v70.9
		c0,48.3-23.9,97-56.2,97c-35.6,0-39.1-41.9-39.1-87.6C1440.6,360.3,1454.7,324.3,1503.6,324.3L1503.6,324.3z M1654.1,288.9v163.5
		c0,52.2,20,84.7,71.3,84.7c34.7,0,69.3-15.3,86.9-53.7c4.4,35.9,24.4,54.7,24.4,54.7l43.5-17.7c0,0-23.4-27.1-23.4-104.9V288.9
		H1801V409c0,52.2-30.3,86.7-59.1,86.7c-23.4,0-32.2-17.2-32.2-44.3V288.9H1654.1z M2161,284.9c-69.3,0-116.7,55.1-116.7,130
		c0,73.9,28.8,122.1,89.8,122.1c41.5,0,65.4-20.2,76.2-59.6c2.4,39.9,24.9,60.6,24.9,60.6l43.5-17.7c0,0-23.4-27.1-23.4-104.9V299.2
		C2250.9,298.2,2200.1,284.9,2161,284.9L2161,284.9z M1497.2,284.9c-69.3,0-116.7,55.1-116.7,130c0,73.9,28.8,122.1,89.9,122.1
		c41.5,0,65.4-20.2,76.2-59.6c2.4,39.9,24.9,60.6,24.9,60.6l43.5-17.7c0,0-23.4-27.1-23.4-104.9V299.2
		C1587.1,298.2,1536.3,284.9,1497.2,284.9L1497.2,284.9z M1977.7,176.6l-55.7,10.3v293.9c0,32,17.6,55.1,54.2,55.1
		c31.3,0,51.3-8.9,51.3-8.9l-6.8-35.4c0,0-12.7,3.9-25.9,3.9c-11.2,0-17.1-5.4-17.1-20.2V176.6L1977.7,176.6z"/>
	<defs>
		<filter id="Adobe_OpacityMaskFilter_1_" filterUnits="userSpaceOnUse" x="693.3" y="96.2" width="571.2" height="599.6">
			<feColorMatrix  type="matrix" values="1 0 0 0 0  0 1 0 0 0  0 0 1 0 0  0 0 0 1 0"/>
		</filter>
	</defs>
	<mask maskUnits="userSpaceOnUse" x="693.3" y="96.2" width="571.2" height="599.6" id="mask-5_2_">
		<g id="XMLID_164_" class="st3">
			<path id="path-4_2_" class="st1" d="M693.3,96.2h571.2v599.6H693.3V96.2z"/>
		</g>
	</mask>
	<path id="Fill-1_1_" sketch:type="MSShapeGroup" class="st4" d="M1087.9,351.7c41.6,97.7,15.6,201.8-58.8,235.6
		c-74.5,33.7-170.7-15.1-217.7-110.4c28.9,7,59.3,4.1,86.3-8.1c20.3-9.2,37.9-23.4,51.2-41.1c2.5,0.6,4.9,0.6,6.8,0
		c1.8-1.1,3.4-3,4.6-5.4c22.2,1.7,44.5-2.1,64.8-11.2C1052.2,398.8,1074.3,377.9,1087.9,351.7L1087.9,351.7z M927.5,366.1
		c10.2,3.3,34.2,8.7,35.1,15.5c0.6,8.7,0.2,36.3-8.9,41.7c-10.1,3.3-31.3-14.5-37.5-20.7C911.6,397.5,923.3,375.9,927.5,366.1
		L927.5,366.1z M974.7,286.5c3.4-1.5,7.4-0.1,9,3.3c1.6,3.4,0,7.4-3.4,8.9c-3.4,1.5-7.4,0.1-9-3.3C969.7,292,971.2,288,974.7,286.5
		L974.7,286.5L974.7,286.5z M834.3,350c3.4-1.5,7.4,0,9,3.3c1.6,3.4,0,7.4-3.4,8.9c-3.4,1.5-7.4,0-9-3.3
		C829.4,355.5,830.9,351.5,834.3,350L834.3,350L834.3,350z M984.5,271.9c-9.1,4.2-16.2,11.9-19.5,21.3c-6.8,19.3,3.4,40.4,22.8,47.1
		l0,0c19.4,6.7,40.6-3.4,47.4-22.7l0,0c6.8-19.3-3.4-40.4-22.8-47.1l0,0C1003.3,267.4,993.2,267.9,984.5,271.9L984.5,271.9z
		 M844.1,335.5c-9.1,4.2-16.2,11.9-19.5,21.3c-6.8,19.3,3.4,40.4,22.8,47.1l0,0c19.4,6.7,40.6-3.4,47.4-22.7v0
		c6.8-19.3-3.4-40.4-22.8-47.1l0,0C862.9,330.9,852.9,331.4,844.1,335.5L844.1,335.5z M966.7,263c13-6,27.8-6.7,41.3-2
		c28.7,10,43.8,41.1,33.8,69.6c-10,28.5-41.4,43.5-70.1,33.5c-28.7-10-43.8-41.1-33.8-69.6C942.8,280.5,953.2,269.2,966.7,263
		L966.7,263z M826.3,326.5c13-6,27.8-6.7,41.3-2c28.7,10,43.8,41.1,33.8,69.6s-41.4,43.5-70.1,33.5c-28.7-10-43.8-41.1-33.8-69.6
		C802.4,344.1,812.8,332.7,826.3,326.5L826.3,326.5z M965,259.5c-14.4,6.6-25.5,18.8-30.8,33.7c-10.7,30.5,5.4,63.8,36.1,74.5l0,0
		c30.7,10.7,64.3-5.4,75-35.9c10.7-30.5-5.4-63.8-36.1-74.5l0,0C994.8,252.3,978.9,253.1,965,259.5L965,259.5z M824.7,323
		c-14.4,6.6-25.5,18.8-30.8,33.7c-10.7,30.5,5.4,63.8,36.1,74.5l0,0c30.7,10.7,64.2-5.4,75-35.9c10.7-30.5-5.4-63.8-36.1-74.5l0,0
		C854.4,315.9,838.6,316.6,824.7,323L824.7,323z M801.2,277.1c21.8-10.1,46.8-11.3,69.5-3.4c6.5,2.3,12.7,5.3,18.5,8.9
		c0.9-5.4,2.2-10.8,4-16c16.9-47.9,69.7-73.2,117.9-56.4l0,0c48.2,16.8,73.7,69.2,56.8,117.1c-14.8,41.8-57.5,67.2-101.6,60.4
		c0-3.3-0.1-6.2-0.2-8.2c-1-7.8-28.8-14.1-40.6-17.9c-4.9,11.4-18.3,36.3-13.1,42.2c1.4,1.4,3.5,3.4,6.1,5.5
		c-22.9,36.3-68.1,52-108.8,37.9c-48.2-16.8-73.7-69.2-56.8-117.1C761.1,306.7,778.5,287.5,801.2,277.1L801.2,277.1z M694.9,220.4
		c-6.1,44.2,5.9,88,24.9,129.1c-1.2,23.5,3,46.3,12.5,67.1c10,21.6,25.4,40.4,45.2,55.2c-0.2,4.1-0.3,8.2-0.2,12.3
		c-14.5,10.2-25.9,23-33.8,37.8c-23.7,45.4-12,104.6,30.7,155.4c15.6-35.4,26.6-72,32.4-107.9c33.9,43.3,91.9,66.3,155.4,61.3
		c1.9,10.7,9.2,24.3,10.6,29.4c-4.2,7.7-11.3,19.9-11.9,27.4c-0.7,9,13.2-5.8,17-8.8c2.6,4.2,3.5,16,9.6,16.9
		c7,1.1,6.8-16.6,5.3-22.3c4.1,1.7,11.1,6.8,14.5,3.6c3-2.9-0.2-8.6-5.5-12c-5.8-3.8-10.4-6.1-15.7-8.8c-3.3-6.2-8.4-17.9-13.7-26.3
		c23-2.8,45.9-9.3,67.4-19c21.5-9.8,41.4-22.8,58.6-38.2c2.9,9.5,8.5,21.1,11,27.7c-1.4,5.7-2.6,10.7-3.6,17.5
		c-0.9,6.2,1.4,12.3,5.5,12c4.7-0.4,5.4-9.1,6.8-13.2c3.3,4.8,16.7,16.6,20.4,10.7c3.3-5.2-5-13.7-6.5-18.3c4.7-0.9,25.1-1.6,17.8-7
		c-6.1-4.5-20-7.1-28.6-9.1c-3-4.4-8.5-18.7-15.3-27.2c45.4-44.4,66-103.1,55.1-156.9c31.1,19.3,66.2,35.1,103.4,46.6
		c-10.6-65.4-47.9-113-97.9-125c-16.4-3.8-33.7-3.6-50.9,0.5c-3-2.8-6.2-5.4-9.5-8c1.8-24.5-2.4-48.4-12.2-70
		c-9.5-20.6-24-38.7-42.6-53.1c-18.8-41.3-44.2-79.2-81.9-103.6c-13.6,20.1-28,44.3-33.7,67c-31.1,0.4-62.6,7.4-91.8,20.6
		c-29.2,13.3-55.3,32.2-75.9,55.3C746.9,228.5,719,223.4,694.9,220.4L694.9,220.4z"/>
	<defs>
		<filter id="Adobe_OpacityMaskFilter_2_" filterUnits="userSpaceOnUse" x="900.4" y="358.8" width="49.3" height="32.3">
			<feColorMatrix  type="matrix" values="1 0 0 0 0  0 1 0 0 0  0 0 1 0 0  0 0 0 1 0"/>
		</filter>
	</defs>
	<mask maskUnits="userSpaceOnUse" x="900.4" y="358.8" width="49.3" height="32.3" id="mask-7_2_">
		<g id="XMLID_162_" class="st5">
			<path id="path-6_2_" class="st1" d="M1025.2,411.1c-20.3,9.1-42.6,12.9-64.8,11.2l0,0c-1.3,2.4-2.8,4.3-4.6,5.4l0,0
				c-2,0.6-4.3,0.6-6.8,0l0,0c-13.3,17.8-31,31.9-51.2,41.1l0,0c-27,12.2-57.4,15.1-86.3,8.1l0,0c47,95.3,143.2,144,217.7,110.4l0,0
				c74.4-33.8,100.4-137.9,58.8-235.6l0,0C1074.2,377.9,1052.2,398.8,1025.2,411.1"/>
		</g>
	</mask>
	<path id="Fill-4" sketch:type="MSShapeGroup" class="st6" d="M948,358.8c-6.4,10-11,14-20.3,18.5c-9.5,4.1-15.5,4.9-27.3,3.1
		c6.1,13,21.5,12.2,32.4,7.9C943.2,382.9,953.9,371.9,948,358.8"/>
	<defs>
		<filter id="Adobe_OpacityMaskFilter_3_" filterUnits="userSpaceOnUse" x="1030" y="300.1" width="49.3" height="32.3">
			<feColorMatrix  type="matrix" values="1 0 0 0 0  0 1 0 0 0  0 0 1 0 0  0 0 0 1 0"/>
		</filter>
	</defs>
	<mask maskUnits="userSpaceOnUse" x="1030" y="300.1" width="49.3" height="32.3" id="mask-9_2_">
		<g id="XMLID_160_" class="st7">
			<path id="path-8_2_" class="st1" d="M1025.2,411.1c-20.3,9.1-42.6,12.9-64.8,11.2l0,0c-1.3,2.4-2.8,4.3-4.6,5.4l0,0
				c-2,0.6-4.3,0.6-6.8,0l0,0c-13.3,17.8-31,31.9-51.2,41.1l0,0c-27,12.2-57.4,15.1-86.3,8.1l0,0c47,95.3,143.2,144,217.7,110.4l0,0
				c74.4-33.8,100.4-137.9,58.8-235.6l0,0C1074.2,377.9,1052.2,398.8,1025.2,411.1"/>
		</g>
	</mask>
	<path id="Fill-7" sketch:type="MSShapeGroup" class="st8" d="M1077.7,300.1c-6.4,10-11,14-20.3,18.5c-9.5,4.1-15.5,4.9-27.3,3.1
		c6.1,13,21.5,12.2,32.4,7.9C1072.8,324.2,1083.5,313.2,1077.7,300.1"/>
	<defs>
		<filter id="Adobe_OpacityMaskFilter_4_" filterUnits="userSpaceOnUse" x="965.2" y="329.5" width="49.3" height="32.3">
			<feColorMatrix  type="matrix" values="1 0 0 0 0  0 1 0 0 0  0 0 1 0 0  0 0 0 1 0"/>
		</filter>
	</defs>
	<mask maskUnits="userSpaceOnUse" x="965.2" y="329.5" width="49.3" height="32.3" id="mask-11_2_">
		<g id="XMLID_158_" class="st9">
			<path id="path-10_2_" class="st1" d="M1025.2,411.1c-20.3,9.1-42.6,12.9-64.8,11.2l0,0c-1.3,2.4-2.8,4.3-4.6,5.4l0,0
				c-2,0.6-4.3,0.6-6.8,0l0,0c-13.3,17.8-31,31.9-51.2,41.1l0,0c-27,12.2-57.4,15.1-86.3,8.1l0,0c47,95.3,143.2,144,217.7,110.4l0,0
				c74.4-33.8,100.4-137.9,58.8-235.6l0,0C1074.2,377.9,1052.2,398.8,1025.2,411.1"/>
		</g>
	</mask>
	<path id="Fill-10" sketch:type="MSShapeGroup" class="st10" d="M1012.8,329.5c-6.4,10-11,14-20.3,18.5c-9.5,4.1-15.5,4.9-27.3,3.1
		c6.1,13,21.5,12.2,32.4,7.9C1008,353.5,1018.7,342.6,1012.8,329.5"/>
	<defs>
		<filter id="Adobe_OpacityMaskFilter_5_" filterUnits="userSpaceOnUse" x="835.6" y="388.1" width="49.3" height="32.3">
			<feColorMatrix  type="matrix" values="1 0 0 0 0  0 1 0 0 0  0 0 1 0 0  0 0 0 1 0"/>
		</filter>
	</defs>
	<mask maskUnits="userSpaceOnUse" x="835.6" y="388.1" width="49.3" height="32.3" id="mask-13_2_">
		<g id="XMLID_156_" class="st11">
			<path id="path-12_2_" class="st1" d="M1025.2,411.1c-20.3,9.1-42.6,12.9-64.8,11.2l0,0c-1.3,2.4-2.8,4.3-4.6,5.4l0,0
				c-2,0.6-4.3,0.6-6.8,0l0,0c-13.3,17.8-31,31.9-51.2,41.1l0,0c-27,12.2-57.4,15.1-86.3,8.1l0,0c47,95.3,143.2,144,217.7,110.4l0,0
				c74.4-33.8,100.4-137.9,58.8-235.6l0,0C1074.2,377.9,1052.2,398.8,1025.2,411.1"/>
		</g>
	</mask>
	<path id="Fill-13" sketch:type="MSShapeGroup" class="st12" d="M883.2,388.1c-6.4,10-11,14-20.3,18.5c-9.5,4.1-15.5,4.9-27.3,3.1
		c6.1,13,21.5,12.2,32.4,7.9C878.4,412.2,889.1,401.3,883.2,388.1"/>
	<defs>
		<filter id="Adobe_OpacityMaskFilter_6_" filterUnits="userSpaceOnUse" x="770.8" y="417.5" width="49.3" height="32.3">
			<feColorMatrix  type="matrix" values="1 0 0 0 0  0 1 0 0 0  0 0 1 0 0  0 0 0 1 0"/>
		</filter>
	</defs>
	<mask maskUnits="userSpaceOnUse" x="770.8" y="417.5" width="49.3" height="32.3" id="mask-15_2_">
		<g id="XMLID_154_" class="st13">
			<path id="path-14_2_" class="st1" d="M1025.2,411.1c-20.3,9.1-42.6,12.9-64.8,11.2l0,0c-1.3,2.4-2.8,4.3-4.6,5.4l0,0
				c-2,0.6-4.3,0.6-6.8,0l0,0c-13.3,17.8-31,31.9-51.2,41.1l0,0c-27,12.2-57.4,15.1-86.3,8.1l0,0c47,95.3,143.2,144,217.7,110.4l0,0
				c74.4-33.8,100.4-137.9,58.8-235.6l0,0C1074.2,377.9,1052.2,398.8,1025.2,411.1"/>
		</g>
	</mask>
	<path id="Fill-16" sketch:type="MSShapeGroup" class="st14" d="M818.4,417.5c-6.4,10-11,14-20.3,18.5c-9.5,4.1-15.5,4.9-27.3,3.1
		c6.1,13,21.5,12.2,32.4,7.9C813.5,441.6,824.2,430.6,818.4,417.5"/>
	<defs>
		<filter id="Adobe_OpacityMaskFilter_7_" filterUnits="userSpaceOnUse" x="955.2" y="376.1" width="49.3" height="32.3">
			<feColorMatrix  type="matrix" values="1 0 0 0 0  0 1 0 0 0  0 0 1 0 0  0 0 0 1 0"/>
		</filter>
	</defs>
	<mask maskUnits="userSpaceOnUse" x="955.2" y="376.1" width="49.3" height="32.3" id="mask-17_2_">
		<g id="XMLID_152_" class="st15">
			<path id="path-16_2_" class="st1" d="M1025.2,411.1c-20.3,9.1-42.6,12.9-64.8,11.2l0,0c-1.3,2.4-2.8,4.3-4.6,5.4l0,0
				c-2,0.6-4.3,0.6-6.8,0l0,0c-13.3,17.8-31,31.9-51.2,41.1l0,0c-27,12.2-57.4,15.1-86.3,8.1l0,0c47,95.3,143.2,144,217.7,110.4l0,0
				c74.4-33.8,100.4-137.9,58.8-235.6l0,0C1074.2,377.9,1052.2,398.8,1025.2,411.1"/>
		</g>
	</mask>
	<path id="Fill-19" sketch:type="MSShapeGroup" class="st16" d="M1002.8,376.1c-6.4,10-11,14-20.3,18.5c-9.5,4.1-15.5,4.9-27.3,3.1
		c6.1,13,21.5,12.2,32.4,7.9C997.9,400.2,1008.6,389.3,1002.8,376.1"/>
	<defs>
		<filter id="Adobe_OpacityMaskFilter_8_" filterUnits="userSpaceOnUse" x="1020" y="346.8" width="49.3" height="32.3">
			<feColorMatrix  type="matrix" values="1 0 0 0 0  0 1 0 0 0  0 0 1 0 0  0 0 0 1 0"/>
		</filter>
	</defs>
	<mask maskUnits="userSpaceOnUse" x="1020" y="346.8" width="49.3" height="32.3" id="mask-19_2_">
		<g id="XMLID_150_" class="st17">
			<path id="path-18_2_" class="st1" d="M1025.2,411.1c-20.3,9.1-42.6,12.9-64.8,11.2l0,0c-1.3,2.4-2.8,4.3-4.6,5.4l0,0
				c-2,0.6-4.3,0.6-6.8,0l0,0c-13.3,17.8-31,31.9-51.2,41.1l0,0c-27,12.2-57.4,15.1-86.3,8.1l0,0c47,95.3,143.2,144,217.7,110.4l0,0
				c74.4-33.8,100.4-137.9,58.8-235.6l0,0C1074.2,377.9,1052.2,398.8,1025.2,411.1"/>
		</g>
	</mask>
	<path id="Fill-22" sketch:type="MSShapeGroup" class="st18" d="M1067.6,346.8c-6.4,10-11,14-20.3,18.5c-9.5,4.1-15.5,4.9-27.3,3.1
		c6.1,13,21.5,12.2,32.4,7.9C1062.7,370.9,1073.4,359.9,1067.6,346.8"/>
	<defs>
		<filter id="Adobe_OpacityMaskFilter_9_" filterUnits="userSpaceOnUse" x="890.3" y="405.5" width="49.3" height="32.3">
			<feColorMatrix  type="matrix" values="1 0 0 0 0  0 1 0 0 0  0 0 1 0 0  0 0 0 1 0"/>
		</filter>
	</defs>
	<mask maskUnits="userSpaceOnUse" x="890.3" y="405.5" width="49.3" height="32.3" id="mask-21_2_">
		<g id="XMLID_148_" class="st19">
			<path id="path-20_2_" class="st1" d="M1025.2,411.1c-20.3,9.1-42.6,12.9-64.8,11.2l0,0c-1.3,2.4-2.8,4.3-4.6,5.4l0,0
				c-2,0.6-4.3,0.6-6.8,0l0,0c-13.3,17.8-31,31.9-51.2,41.1l0,0c-27,12.2-57.4,15.1-86.3,8.1l0,0c47,95.3,143.2,144,217.7,110.4l0,0
				c74.4-33.8,100.4-137.9,58.8-235.6l0,0C1074.2,377.9,1052.2,398.8,1025.2,411.1"/>
		</g>
	</mask>
	<path id="Fill-25" sketch:type="MSShapeGroup" class="st20" d="M938,405.5c-6.4,10-11,14-20.3,18.5c-9.5,4.1-15.5,4.9-27.3,3.1
		c6.1,13,21.5,12.2,32.4,7.9C933.1,429.6,943.8,418.6,938,405.5"/>
	<defs>
		<filter id="Adobe_OpacityMaskFilter_10_" filterUnits="userSpaceOnUse" x="825.5" y="434.8" width="49.3" height="32.3">
			<feColorMatrix  type="matrix" values="1 0 0 0 0  0 1 0 0 0  0 0 1 0 0  0 0 0 1 0"/>
		</filter>
	</defs>
	<mask maskUnits="userSpaceOnUse" x="825.5" y="434.8" width="49.3" height="32.3" id="mask-23_2_">
		<g id="XMLID_146_" class="st21">
			<path id="path-22_2_" class="st1" d="M1025.2,411.1c-20.3,9.1-42.6,12.9-64.8,11.2l0,0c-1.3,2.4-2.8,4.3-4.6,5.4l0,0
				c-2,0.6-4.3,0.6-6.8,0l0,0c-13.3,17.8-31,31.9-51.2,41.1l0,0c-27,12.2-57.4,15.1-86.3,8.1l0,0c47,95.3,143.2,144,217.7,110.4l0,0
				c74.4-33.8,100.4-137.9,58.8-235.6l0,0C1074.2,377.9,1052.2,398.8,1025.2,411.1"/>
		</g>
	</mask>
	<path id="Fill-28" sketch:type="MSShapeGroup" class="st22" d="M873.2,434.8c-6.4,10-11,14-20.3,18.5c-9.5,4.1-15.5,4.9-27.3,3.1
		c6.1,13,21.5,12.2,32.4,7.9C868.3,458.9,879,447.9,873.2,434.8"/>
	<defs>
		<filter id="Adobe_OpacityMaskFilter_11_" filterUnits="userSpaceOnUse" x="930.3" y="429.5" width="49.3" height="32.3">
			<feColorMatrix  type="matrix" values="1 0 0 0 0  0 1 0 0 0  0 0 1 0 0  0 0 0 1 0"/>
		</filter>
	</defs>
	<mask maskUnits="userSpaceOnUse" x="930.3" y="429.5" width="49.3" height="32.3" id="mask-25_2_">
		<g id="XMLID_144_" class="st23">
			<path id="path-24_2_" class="st1" d="M1025.2,411.1c-20.3,9.1-42.6,12.9-64.8,11.2l0,0c-1.3,2.4-2.8,4.3-4.6,5.4l0,0
				c-2,0.6-4.3,0.6-6.8,0l0,0c-13.3,17.8-31,31.9-51.2,41.1l0,0c-27,12.2-57.4,15.1-86.3,8.1l0,0c47,95.3,143.2,144,217.7,110.4l0,0
				c74.4-33.8,100.4-137.9,58.8-235.6l0,0C1074.2,377.9,1052.2,398.8,1025.2,411.1"/>
		</g>
	</mask>
	<path id="Fill-31" sketch:type="MSShapeGroup" class="st24" d="M977.9,429.5c-6.4,10-11,14-20.3,18.5c-9.5,4.1-15.5,4.9-27.3,3.1
		c6.1,13,21.5,12.2,32.4,7.9C973.1,453.6,983.8,442.6,977.9,429.5"/>
	<defs>
		<filter id="Adobe_OpacityMaskFilter_12_" filterUnits="userSpaceOnUse" x="1059.9" y="370.9" width="49.3" height="32.3">
			<feColorMatrix  type="matrix" values="1 0 0 0 0  0 1 0 0 0  0 0 1 0 0  0 0 0 1 0"/>
		</filter>
	</defs>
	<mask maskUnits="userSpaceOnUse" x="1059.9" y="370.9" width="49.3" height="32.3" id="mask-27_2_">
		<g id="XMLID_142_" class="st25">
			<path id="path-26_2_" class="st1" d="M1025.2,411.1c-20.3,9.1-42.6,12.9-64.8,11.2l0,0c-1.3,2.4-2.8,4.3-4.6,5.4l0,0
				c-2,0.6-4.3,0.6-6.8,0l0,0c-13.3,17.8-31,31.9-51.2,41.1l0,0c-27,12.2-57.4,15.1-86.3,8.1l0,0c47,95.3,143.2,144,217.7,110.4l0,0
				c74.4-33.8,100.4-137.9,58.8-235.6l0,0C1074.2,377.9,1052.2,398.8,1025.2,411.1"/>
		</g>
	</mask>
	<path id="Fill-34" sketch:type="MSShapeGroup" class="st26" d="M1107.6,370.9c-6.4,10-11,14-20.3,18.5c-9.5,4.1-15.5,4.9-27.3,3.1
		c6.1,13,21.5,12.2,32.4,7.9C1102.7,394.9,1113.4,384,1107.6,370.9"/>
	<defs>
		<filter id="Adobe_OpacityMaskFilter_13_" filterUnits="userSpaceOnUse" x="995.1" y="400.2" width="49.3" height="32.3">
			<feColorMatrix  type="matrix" values="1 0 0 0 0  0 1 0 0 0  0 0 1 0 0  0 0 0 1 0"/>
		</filter>
	</defs>
	<mask maskUnits="userSpaceOnUse" x="995.1" y="400.2" width="49.3" height="32.3" id="mask-29_2_">
		<g id="XMLID_140_" class="st27">
			<path id="path-28_2_" class="st1" d="M1025.2,411.1c-20.3,9.1-42.6,12.9-64.8,11.2l0,0c-1.3,2.4-2.8,4.3-4.6,5.4l0,0
				c-2,0.6-4.3,0.6-6.8,0l0,0c-13.3,17.8-31,31.9-51.2,41.1l0,0c-27,12.2-57.4,15.1-86.3,8.1l0,0c47,95.3,143.2,144,217.7,110.4l0,0
				c74.4-33.8,100.4-137.9,58.8-235.6l0,0C1074.2,377.9,1052.2,398.8,1025.2,411.1"/>
		</g>
	</mask>
	<path id="Fill-37" sketch:type="MSShapeGroup" class="st28" d="M1042.7,400.2c-6.4,10-11,14-20.3,18.5c-9.5,4.1-15.5,4.9-27.3,3.1
		c6.1,13,21.5,12.2,32.4,7.9C1037.9,424.3,1048.6,413.3,1042.7,400.2"/>
	<defs>
		<filter id="Adobe_OpacityMaskFilter_14_" filterUnits="userSpaceOnUse" x="865.5" y="458.9" width="49.3" height="32.3">
			<feColorMatrix  type="matrix" values="1 0 0 0 0  0 1 0 0 0  0 0 1 0 0  0 0 0 1 0"/>
		</filter>
	</defs>
	<mask maskUnits="userSpaceOnUse" x="865.5" y="458.9" width="49.3" height="32.3" id="mask-31_2_">
		<g id="XMLID_138_" class="st29">
			<path id="path-30_2_" class="st1" d="M1025.2,411.1c-20.3,9.1-42.6,12.9-64.8,11.2l0,0c-1.3,2.4-2.8,4.3-4.6,5.4l0,0
				c-2,0.6-4.3,0.6-6.8,0l0,0c-13.3,17.8-31,31.9-51.2,41.1l0,0c-27,12.2-57.4,15.1-86.3,8.1l0,0c47,95.3,143.2,144,217.7,110.4l0,0
				c74.4-33.8,100.4-137.9,58.8-235.6l0,0C1074.2,377.9,1052.2,398.8,1025.2,411.1"/>
		</g>
	</mask>
	<path id="Fill-40" sketch:type="MSShapeGroup" class="st30" d="M913.1,458.9c-6.4,10-11,14-20.3,18.5c-9.5,4.1-15.5,4.9-27.3,3.1
		c6.1,13,21.5,12.2,32.4,7.9C908.3,483,919,472,913.1,458.9"/>
	<defs>
		<filter id="Adobe_OpacityMaskFilter_15_" filterUnits="userSpaceOnUse" x="800.7" y="488.2" width="49.3" height="32.3">
			<feColorMatrix  type="matrix" values="1 0 0 0 0  0 1 0 0 0  0 0 1 0 0  0 0 0 1 0"/>
		</filter>
	</defs>
	<mask maskUnits="userSpaceOnUse" x="800.7" y="488.2" width="49.3" height="32.3" id="mask-33_2_">
		<g id="XMLID_136_" class="st31">
			<path id="path-32_2_" class="st1" d="M1025.2,411.1c-20.3,9.1-42.6,12.9-64.8,11.2l0,0c-1.3,2.4-2.8,4.3-4.6,5.4l0,0
				c-2,0.6-4.3,0.6-6.8,0l0,0c-13.3,17.8-31,31.9-51.2,41.1l0,0c-27,12.2-57.4,15.1-86.3,8.1l0,0c47,95.3,143.2,144,217.7,110.4l0,0
				c74.4-33.8,100.4-137.9,58.8-235.6l0,0C1074.2,377.9,1052.2,398.8,1025.2,411.1"/>
		</g>
	</mask>
	<path id="Fill-43" sketch:type="MSShapeGroup" class="st32" d="M848.3,488.2c-6.4,10-11,14-20.3,18.5c-9.5,4.1-15.5,4.9-27.3,3.1
		c6.1,13,21.5,12.2,32.4,7.9C843.4,512.3,854.1,501.3,848.3,488.2"/>
	<defs>
		<filter id="Adobe_OpacityMaskFilter_16_" filterUnits="userSpaceOnUse" x="985.1" y="446.9" width="49.3" height="32.3">
			<feColorMatrix  type="matrix" values="1 0 0 0 0  0 1 0 0 0  0 0 1 0 0  0 0 0 1 0"/>
		</filter>
	</defs>
	<mask maskUnits="userSpaceOnUse" x="985.1" y="446.9" width="49.3" height="32.3" id="mask-35_2_">
		<g id="XMLID_134_" class="st33">
			<path id="path-34_2_" class="st1" d="M1025.2,411.1c-20.3,9.1-42.6,12.9-64.8,11.2l0,0c-1.3,2.4-2.8,4.3-4.6,5.4l0,0
				c-2,0.6-4.3,0.6-6.8,0l0,0c-13.3,17.8-31,31.9-51.2,41.1l0,0c-27,12.2-57.4,15.1-86.3,8.1l0,0c47,95.3,143.2,144,217.7,110.4l0,0
				c74.4-33.8,100.4-137.9,58.8-235.6l0,0C1074.2,377.9,1052.2,398.8,1025.2,411.1"/>
		</g>
	</mask>
	<path id="Fill-46" sketch:type="MSShapeGroup" class="st34" d="M1032.7,446.9c-6.4,10-11,14-20.3,18.5c-9.5,4.1-15.5,4.9-27.3,3.1
		c6.1,13,21.5,12.2,32.4,7.9C1027.8,471,1038.5,460,1032.7,446.9"/>
	<defs>
		<filter id="Adobe_OpacityMaskFilter_17_" filterUnits="userSpaceOnUse" x="1049.9" y="417.5" width="49.3" height="32.3">
			<feColorMatrix  type="matrix" values="1 0 0 0 0  0 1 0 0 0  0 0 1 0 0  0 0 0 1 0"/>
		</filter>
	</defs>
	<mask maskUnits="userSpaceOnUse" x="1049.9" y="417.5" width="49.3" height="32.3" id="mask-37_2_">
		<g id="XMLID_132_" class="st35">
			<path id="path-36_2_" class="st1" d="M1025.2,411.1c-20.3,9.1-42.6,12.9-64.8,11.2l0,0c-1.3,2.4-2.8,4.3-4.6,5.4l0,0
				c-2,0.6-4.3,0.6-6.8,0l0,0c-13.3,17.8-31,31.9-51.2,41.1l0,0c-27,12.2-57.4,15.1-86.3,8.1l0,0c47,95.3,143.2,144,217.7,110.4l0,0
				c74.4-33.8,100.4-137.9,58.8-235.6l0,0C1074.2,377.9,1052.2,398.8,1025.2,411.1"/>
		</g>
	</mask>
	<path id="Fill-49" sketch:type="MSShapeGroup" class="st36" d="M1097.5,417.5c-6.4,10-11,14-20.3,18.5c-9.5,4.1-15.5,4.9-27.3,3.1
		c6.1,13,21.5,12.2,32.4,7.9C1092.6,441.6,1103.3,430.7,1097.5,417.5"/>
	<defs>
		<filter id="Adobe_OpacityMaskFilter_18_" filterUnits="userSpaceOnUse" x="920.2" y="476.2" width="49.3" height="32.3">
			<feColorMatrix  type="matrix" values="1 0 0 0 0  0 1 0 0 0  0 0 1 0 0  0 0 0 1 0"/>
		</filter>
	</defs>
	<mask maskUnits="userSpaceOnUse" x="920.2" y="476.2" width="49.3" height="32.3" id="mask-39_2_">
		<g id="XMLID_130_" class="st37">
			<path id="path-38_2_" class="st1" d="M1025.2,411.1c-20.3,9.1-42.6,12.9-64.8,11.2l0,0c-1.3,2.4-2.8,4.3-4.6,5.4l0,0
				c-2,0.6-4.3,0.6-6.8,0l0,0c-13.3,17.8-31,31.9-51.2,41.1l0,0c-27,12.2-57.4,15.1-86.3,8.1l0,0c47,95.3,143.2,144,217.7,110.4l0,0
				c74.4-33.8,100.4-137.9,58.8-235.6l0,0C1074.2,377.9,1052.2,398.8,1025.2,411.1"/>
		</g>
	</mask>
	<path id="Fill-52" sketch:type="MSShapeGroup" class="st38" d="M967.9,476.2c-6.4,10-11,14-20.3,18.5c-9.5,4.1-15.5,4.9-27.3,3.1
		c6.1,13,21.5,12.2,32.4,7.9C963,500.3,973.7,489.3,967.9,476.2"/>
	<defs>
		<filter id="Adobe_OpacityMaskFilter_19_" filterUnits="userSpaceOnUse" x="855.4" y="505.6" width="49.3" height="32.3">
			<feColorMatrix  type="matrix" values="1 0 0 0 0  0 1 0 0 0  0 0 1 0 0  0 0 0 1 0"/>
		</filter>
	</defs>
	<mask maskUnits="userSpaceOnUse" x="855.4" y="505.6" width="49.3" height="32.3" id="mask-41_2_">
		<g id="XMLID_128_" class="st39">
			<path id="path-40_2_" class="st1" d="M1025.2,411.1c-20.3,9.1-42.6,12.9-64.8,11.2l0,0c-1.3,2.4-2.8,4.3-4.6,5.4l0,0
				c-2,0.6-4.3,0.6-6.8,0l0,0c-13.3,17.8-31,31.9-51.2,41.1l0,0c-27,12.2-57.4,15.1-86.3,8.1l0,0c47,95.3,143.2,144,217.7,110.4l0,0
				c74.4-33.8,100.4-137.9,58.8-235.6l0,0C1074.2,377.9,1052.2,398.8,1025.2,411.1"/>
		</g>
	</mask>
	<path id="Fill-55" sketch:type="MSShapeGroup" class="st40" d="M903.1,505.6c-6.4,10-11,14-20.3,18.5c-9.5,4.1-15.5,4.9-27.3,3.1
		c6.1,13,21.5,12.2,32.4,7.9C898.2,529.6,908.9,518.7,903.1,505.6"/>
	<defs>
		<filter id="Adobe_OpacityMaskFilter_20_" filterUnits="userSpaceOnUse" x="972.2" y="494.8" width="49.3" height="32.3">
			<feColorMatrix  type="matrix" values="1 0 0 0 0  0 1 0 0 0  0 0 1 0 0  0 0 0 1 0"/>
		</filter>
	</defs>
	<mask maskUnits="userSpaceOnUse" x="972.2" y="494.8" width="49.3" height="32.3" id="mask-43_2_">
		<g id="XMLID_126_" class="st41">
			<path id="path-42_2_" class="st1" d="M1025.2,411.1c-20.3,9.1-42.6,12.9-64.8,11.2l0,0c-1.3,2.4-2.8,4.3-4.6,5.4l0,0
				c-2,0.6-4.3,0.6-6.8,0l0,0c-13.3,17.8-31,31.9-51.2,41.1l0,0c-27,12.2-57.4,15.1-86.3,8.1l0,0c47,95.3,143.2,144,217.7,110.4l0,0
				c74.4-33.8,100.4-137.9,58.8-235.6l0,0C1074.2,377.9,1052.2,398.8,1025.2,411.1"/>
		</g>
	</mask>
	<path id="Fill-58" sketch:type="MSShapeGroup" class="st42" d="M1019.8,494.8c-6.4,10-11,14-20.3,18.5c-9.5,4.1-15.5,4.9-27.3,3.1
		c6.1,13,21.5,12.2,32.4,7.9C1015,518.9,1025.7,508,1019.8,494.8"/>
	<defs>
		<filter id="Adobe_OpacityMaskFilter_21_" filterUnits="userSpaceOnUse" x="1101.8" y="436.2" width="49.3" height="32.3">
			<feColorMatrix  type="matrix" values="1 0 0 0 0  0 1 0 0 0  0 0 1 0 0  0 0 0 1 0"/>
		</filter>
	</defs>
	<mask maskUnits="userSpaceOnUse" x="1101.8" y="436.2" width="49.3" height="32.3" id="mask-45_2_">
		<g id="XMLID_124_" class="st43">
			<path id="path-44_2_" class="st1" d="M1025.2,411.1c-20.3,9.1-42.6,12.9-64.8,11.2l0,0c-1.3,2.4-2.8,4.3-4.6,5.4l0,0
				c-2,0.6-4.3,0.6-6.8,0l0,0c-13.3,17.8-31,31.9-51.2,41.1l0,0c-27,12.2-57.4,15.1-86.3,8.1l0,0c47,95.3,143.2,144,217.7,110.4l0,0
				c74.4-33.8,100.4-137.9,58.8-235.6l0,0C1074.2,377.9,1052.2,398.8,1025.2,411.1"/>
		</g>
	</mask>
	<path id="Fill-61" sketch:type="MSShapeGroup" class="st44" d="M1149.4,436.2c-6.4,10-11,14-20.3,18.5c-9.5,4.1-15.5,4.9-27.3,3.1
		c6.1,13,21.5,12.2,32.4,7.9C1144.6,460.2,1155.3,449.3,1149.4,436.2"/>
	<defs>
		<filter id="Adobe_OpacityMaskFilter_22_" filterUnits="userSpaceOnUse" x="1037" y="465.5" width="49.3" height="32.3">
			<feColorMatrix  type="matrix" values="1 0 0 0 0  0 1 0 0 0  0 0 1 0 0  0 0 0 1 0"/>
		</filter>
	</defs>
	<mask maskUnits="userSpaceOnUse" x="1037" y="465.5" width="49.3" height="32.3" id="mask-47_2_">
		<g id="XMLID_122_" class="st45">
			<path id="path-46_2_" class="st1" d="M1025.2,411.1c-20.3,9.1-42.6,12.9-64.8,11.2l0,0c-1.3,2.4-2.8,4.3-4.6,5.4l0,0
				c-2,0.6-4.3,0.6-6.8,0l0,0c-13.3,17.8-31,31.9-51.2,41.1l0,0c-27,12.2-57.4,15.1-86.3,8.1l0,0c47,95.3,143.2,144,217.7,110.4l0,0
				c74.4-33.8,100.4-137.9,58.8-235.6l0,0C1074.2,377.9,1052.2,398.8,1025.2,411.1"/>
		</g>
	</mask>
	<path id="Fill-64" sketch:type="MSShapeGroup" class="st46" d="M1084.6,465.5c-6.4,10-11,14-20.3,18.5c-9.5,4.1-15.5,4.9-27.3,3.1
		c6.1,13,21.5,12.2,32.4,7.9C1079.8,489.6,1090.5,478.6,1084.6,465.5"/>
	<defs>
		<filter id="Adobe_OpacityMaskFilter_23_" filterUnits="userSpaceOnUse" x="907.4" y="524.2" width="49.3" height="32.3">
			<feColorMatrix  type="matrix" values="1 0 0 0 0  0 1 0 0 0  0 0 1 0 0  0 0 0 1 0"/>
		</filter>
	</defs>
	<mask maskUnits="userSpaceOnUse" x="907.4" y="524.2" width="49.3" height="32.3" id="mask-49_2_">
		<g id="XMLID_120_" class="st47">
			<path id="path-48_2_" class="st1" d="M1025.2,411.1c-20.3,9.1-42.6,12.9-64.8,11.2l0,0c-1.3,2.4-2.8,4.3-4.6,5.4l0,0
				c-2,0.6-4.3,0.6-6.8,0l0,0c-13.3,17.8-31,31.9-51.2,41.1l0,0c-27,12.2-57.4,15.1-86.3,8.1l0,0c47,95.3,143.2,144,217.7,110.4l0,0
				c74.4-33.8,100.4-137.9,58.8-235.6l0,0C1074.2,377.9,1052.2,398.8,1025.2,411.1"/>
		</g>
	</mask>
	<path id="Fill-67" sketch:type="MSShapeGroup" class="st48" d="M955,524.2c-6.4,10-11,14-20.3,18.5c-9.5,4.1-15.5,4.9-27.3,3.1
		c6.1,13,21.5,12.2,32.4,7.9C950.1,548.3,960.8,537.3,955,524.2"/>
	<defs>
		<filter id="Adobe_OpacityMaskFilter_24_" filterUnits="userSpaceOnUse" x="842.5" y="553.5" width="49.3" height="32.3">
			<feColorMatrix  type="matrix" values="1 0 0 0 0  0 1 0 0 0  0 0 1 0 0  0 0 0 1 0"/>
		</filter>
	</defs>
	<mask maskUnits="userSpaceOnUse" x="842.5" y="553.5" width="49.3" height="32.3" id="mask-51_2_">
		<g id="XMLID_118_" class="st49">
			<path id="path-50_2_" class="st1" d="M1025.2,411.1c-20.3,9.1-42.6,12.9-64.8,11.2l0,0c-1.3,2.4-2.8,4.3-4.6,5.4l0,0
				c-2,0.6-4.3,0.6-6.8,0l0,0c-13.3,17.8-31,31.9-51.2,41.1l0,0c-27,12.2-57.4,15.1-86.3,8.1l0,0c47,95.3,143.2,144,217.7,110.4l0,0
				c74.4-33.8,100.4-137.9,58.8-235.6l0,0C1074.2,377.9,1052.2,398.8,1025.2,411.1"/>
		</g>
	</mask>
	<path id="Fill-70" sketch:type="MSShapeGroup" class="st50" d="M890.2,553.5c-6.4,10-11,14-20.3,18.5c-9.5,4.1-15.5,4.9-27.3,3.1
		c6.1,13,21.5,12.2,32.4,7.9C885.3,577.6,896,566.6,890.2,553.5"/>
	<defs>
		<filter id="Adobe_OpacityMaskFilter_25_" filterUnits="userSpaceOnUse" x="1026.9" y="512.2" width="49.3" height="32.3">
			<feColorMatrix  type="matrix" values="1 0 0 0 0  0 1 0 0 0  0 0 1 0 0  0 0 0 1 0"/>
		</filter>
	</defs>
	<mask maskUnits="userSpaceOnUse" x="1026.9" y="512.2" width="49.3" height="32.3" id="mask-53_2_">
		<g id="XMLID_116_" class="st51">
			<path id="path-52_2_" class="st1" d="M1025.2,411.1c-20.3,9.1-42.6,12.9-64.8,11.2l0,0c-1.3,2.4-2.8,4.3-4.6,5.4l0,0
				c-2,0.6-4.3,0.6-6.8,0l0,0c-13.3,17.8-31,31.9-51.2,41.1l0,0c-27,12.2-57.4,15.1-86.3,8.1l0,0c47,95.3,143.2,144,217.7,110.4l0,0
				c74.4-33.8,100.4-137.9,58.8-235.6l0,0C1074.2,377.9,1052.2,398.8,1025.2,411.1"/>
		</g>
	</mask>
	<path id="Fill-73" sketch:type="MSShapeGroup" class="st52" d="M1074.6,512.2c-6.4,10-11,14-20.3,18.5c-9.5,4.1-15.5,4.9-27.3,3.1
		c6.1,13,21.5,12.2,32.4,7.9C1069.7,536.3,1080.4,525.3,1074.6,512.2"/>
	<defs>
		<filter id="Adobe_OpacityMaskFilter_26_" filterUnits="userSpaceOnUse" x="1091.7" y="482.9" width="49.3" height="32.3">
			<feColorMatrix  type="matrix" values="1 0 0 0 0  0 1 0 0 0  0 0 1 0 0  0 0 0 1 0"/>
		</filter>
	</defs>
	<mask maskUnits="userSpaceOnUse" x="1091.7" y="482.9" width="49.3" height="32.3" id="mask-55_2_">
		<g id="XMLID_114_" class="st53">
			<path id="path-54_2_" class="st1" d="M1025.2,411.1c-20.3,9.1-42.6,12.9-64.8,11.2l0,0c-1.3,2.4-2.8,4.3-4.6,5.4l0,0
				c-2,0.6-4.3,0.6-6.8,0l0,0c-13.3,17.8-31,31.9-51.2,41.1l0,0c-27,12.2-57.4,15.1-86.3,8.1l0,0c47,95.3,143.2,144,217.7,110.4l0,0
				c74.4-33.8,100.4-137.9,58.8-235.6l0,0C1074.2,377.9,1052.2,398.8,1025.2,411.1"/>
		</g>
	</mask>
	<path id="Fill-76" sketch:type="MSShapeGroup" class="st54" d="M1139.4,482.9c-6.4,10-11,14-20.3,18.5c-9.5,4.1-15.5,4.9-27.3,3.1
		c6.1,13,21.5,12.2,32.4,7.9C1134.5,506.9,1145.2,496,1139.4,482.9"/>
	<defs>
		<filter id="Adobe_OpacityMaskFilter_27_" filterUnits="userSpaceOnUse" x="962.1" y="541.5" width="49.3" height="32.3">
			<feColorMatrix  type="matrix" values="1 0 0 0 0  0 1 0 0 0  0 0 1 0 0  0 0 0 1 0"/>
		</filter>
	</defs>
	<mask maskUnits="userSpaceOnUse" x="962.1" y="541.5" width="49.3" height="32.3" id="mask-57_2_">
		<g id="XMLID_112_" class="st55">
			<path id="path-56_2_" class="st1" d="M1025.2,411.1c-20.3,9.1-42.6,12.9-64.8,11.2l0,0c-1.3,2.4-2.8,4.3-4.6,5.4l0,0
				c-2,0.6-4.3,0.6-6.8,0l0,0c-13.3,17.8-31,31.9-51.2,41.1l0,0c-27,12.2-57.4,15.1-86.3,8.1l0,0c47,95.3,143.2,144,217.7,110.4l0,0
				c74.4-33.8,100.4-137.9,58.8-235.6l0,0C1074.2,377.9,1052.2,398.8,1025.2,411.1"/>
		</g>
	</mask>
	<path id="Fill-79" sketch:type="MSShapeGroup" class="st56" d="M1009.7,541.5c-6.4,10-11,14-20.3,18.5c-9.5,4.1-15.5,4.9-27.3,3.1
		c6.1,13,21.5,12.2,32.4,7.9C1004.9,565.6,1015.6,554.7,1009.7,541.5"/>
	<defs>
		<filter id="Adobe_OpacityMaskFilter_28_" filterUnits="userSpaceOnUse" x="897.3" y="570.9" width="49.3" height="32.3">
			<feColorMatrix  type="matrix" values="1 0 0 0 0  0 1 0 0 0  0 0 1 0 0  0 0 0 1 0"/>
		</filter>
	</defs>
	<mask maskUnits="userSpaceOnUse" x="897.3" y="570.9" width="49.3" height="32.3" id="mask-59_2_">
		<g id="XMLID_110_" class="st57">
			<path id="path-58_2_" class="st1" d="M1025.2,411.1c-20.3,9.1-42.6,12.9-64.8,11.2l0,0c-1.3,2.4-2.8,4.3-4.6,5.4l0,0
				c-2,0.6-4.3,0.6-6.8,0l0,0c-13.3,17.8-31,31.9-51.2,41.1l0,0c-27,12.2-57.4,15.1-86.3,8.1l0,0c47,95.3,143.2,144,217.7,110.4l0,0
				c74.4-33.8,100.4-137.9,58.8-235.6l0,0C1074.2,377.9,1052.2,398.8,1025.2,411.1"/>
		</g>
	</mask>
	<path id="Fill-82" sketch:type="MSShapeGroup" class="st58" d="M944.9,570.9c-6.4,10-11,14-20.3,18.5c-9.5,4.1-15.5,4.9-27.3,3.1
		c6.1,13,21.5,12.2,32.4,7.9C940.1,595,950.8,584,944.9,570.9"/>
	<defs>
		<filter id="Adobe_OpacityMaskFilter_29_" filterUnits="userSpaceOnUse" x="1000" y="566.5" width="49.3" height="32.3">
			<feColorMatrix  type="matrix" values="1 0 0 0 0  0 1 0 0 0  0 0 1 0 0  0 0 0 1 0"/>
		</filter>
	</defs>
	<mask maskUnits="userSpaceOnUse" x="1000" y="566.5" width="49.3" height="32.3" id="mask-61_2_">
		<g id="XMLID_108_" class="st59">
			<path id="path-60_2_" class="st1" d="M1025.2,411.1c-20.3,9.1-42.6,12.9-64.8,11.2l0,0c-1.3,2.4-2.8,4.3-4.6,5.4l0,0
				c-2,0.6-4.3,0.6-6.8,0l0,0c-13.3,17.8-31,31.9-51.2,41.1l0,0c-27,12.2-57.4,15.1-86.3,8.1l0,0c47,95.3,143.2,144,217.7,110.4l0,0
				c74.4-33.8,100.4-137.9,58.8-235.6l0,0C1074.2,377.9,1052.2,398.8,1025.2,411.1"/>
		</g>
	</mask>
	<path id="Fill-85" sketch:type="MSShapeGroup" class="st60" d="M1047.6,566.5c-6.4,10-11,14-20.3,18.5c-9.5,4.1-15.5,4.9-27.3,3.1
		c6.1,13,21.5,12.2,32.4,7.9C1042.7,590.6,1053.4,579.7,1047.6,566.5"/>
	<defs>
		<filter id="Adobe_OpacityMaskFilter_30_" filterUnits="userSpaceOnUse" x="1129.6" y="507.9" width="49.3" height="32.3">
			<feColorMatrix  type="matrix" values="1 0 0 0 0  0 1 0 0 0  0 0 1 0 0  0 0 0 1 0"/>
		</filter>
	</defs>
	<mask maskUnits="userSpaceOnUse" x="1129.6" y="507.9" width="49.3" height="32.3" id="mask-63_2_">
		<g id="XMLID_106_" class="st61">
			<path id="path-62_2_" class="st1" d="M1025.2,411.1c-20.3,9.1-42.6,12.9-64.8,11.2l0,0c-1.3,2.4-2.8,4.3-4.6,5.4l0,0
				c-2,0.6-4.3,0.6-6.8,0l0,0c-13.3,17.8-31,31.9-51.2,41.1l0,0c-27,12.2-57.4,15.1-86.3,8.1l0,0c47,95.3,143.2,144,217.7,110.4l0,0
				c74.4-33.8,100.4-137.9,58.8-235.6l0,0C1074.2,377.9,1052.2,398.8,1025.2,411.1"/>
		</g>
	</mask>
	<path id="Fill-88" sketch:type="MSShapeGroup" class="st62" d="M1177.2,507.9c-6.4,10-11,14-20.3,18.5c-9.5,4.1-15.5,4.9-27.3,3.1
		c6.1,13,21.5,12.2,32.4,7.9C1172.4,531.9,1183.1,521,1177.2,507.9"/>
	<defs>
		<filter id="Adobe_OpacityMaskFilter_31_" filterUnits="userSpaceOnUse" x="1064.8" y="537.2" width="49.3" height="32.3">
			<feColorMatrix  type="matrix" values="1 0 0 0 0  0 1 0 0 0  0 0 1 0 0  0 0 0 1 0"/>
		</filter>
	</defs>
	<mask maskUnits="userSpaceOnUse" x="1064.8" y="537.2" width="49.3" height="32.3" id="mask-65_2_">
		<g id="XMLID_104_" class="st63">
			<path id="path-64_2_" class="st1" d="M1025.2,411.1c-20.3,9.1-42.6,12.9-64.8,11.2l0,0c-1.3,2.4-2.8,4.3-4.6,5.4l0,0
				c-2,0.6-4.3,0.6-6.8,0l0,0c-13.3,17.8-31,31.9-51.2,41.1l0,0c-27,12.2-57.4,15.1-86.3,8.1l0,0c47,95.3,143.2,144,217.7,110.4l0,0
				c74.4-33.8,100.4-137.9,58.8-235.6l0,0C1074.2,377.9,1052.2,398.8,1025.2,411.1"/>
		</g>
	</mask>
	<path id="Fill-91" sketch:type="MSShapeGroup" class="st64" d="M1112.4,537.2c-6.4,10-11,14-20.3,18.5c-9.5,4.1-15.5,4.9-27.3,3.1
		c6.1,13,21.5,12.2,32.4,7.9C1107.6,561.3,1118.3,550.3,1112.4,537.2"/>
	<defs>
		<filter id="Adobe_OpacityMaskFilter_32_" filterUnits="userSpaceOnUse" x="935.1" y="595.9" width="49.3" height="32.3">
			<feColorMatrix  type="matrix" values="1 0 0 0 0  0 1 0 0 0  0 0 1 0 0  0 0 0 1 0"/>
		</filter>
	</defs>
	<mask maskUnits="userSpaceOnUse" x="935.1" y="595.9" width="49.3" height="32.3" id="mask-67_2_">
		<g id="XMLID_100_" class="st65">
			<path id="path-66_2_" class="st1" d="M1025.2,411.1c-20.3,9.1-42.6,12.9-64.8,11.2l0,0c-1.3,2.4-2.8,4.3-4.6,5.4l0,0
				c-2,0.6-4.3,0.6-6.8,0l0,0c-13.3,17.8-31,31.9-51.2,41.1l0,0c-27,12.2-57.4,15.1-86.3,8.1l0,0c47,95.3,143.2,144,217.7,110.4l0,0
				c74.4-33.8,100.4-137.9,58.8-235.6l0,0C1074.2,377.9,1052.2,398.8,1025.2,411.1"/>
		</g>
	</mask>
	<path id="Fill-94" sketch:type="MSShapeGroup" class="st66" d="M982.8,595.9c-6.4,10-11,14-20.3,18.5c-9.5,4.1-15.5,4.9-27.3,3.1
		c6.1,13,21.5,12.2,32.4,7.9C977.9,620,988.6,609,982.8,595.9"/>
	<defs>
		<filter id="Adobe_OpacityMaskFilter_33_" filterUnits="userSpaceOnUse" x="870.3" y="625.2" width="49.3" height="32.3">
			<feColorMatrix  type="matrix" values="1 0 0 0 0  0 1 0 0 0  0 0 1 0 0  0 0 0 1 0"/>
		</filter>
	</defs>
	<mask maskUnits="userSpaceOnUse" x="870.3" y="625.2" width="49.3" height="32.3" id="mask-69_2_">
		<g id="XMLID_98_" class="st67">
			<path id="path-68_2_" class="st1" d="M1025.2,411.1c-20.3,9.1-42.6,12.9-64.8,11.2l0,0c-1.3,2.4-2.8,4.3-4.6,5.4l0,0
				c-2,0.6-4.3,0.6-6.8,0l0,0c-13.3,17.8-31,31.9-51.2,41.1l0,0c-27,12.2-57.4,15.1-86.3,8.1l0,0c47,95.3,143.2,144,217.7,110.4l0,0
				c74.4-33.8,100.4-137.9,58.8-235.6l0,0C1074.2,377.9,1052.2,398.8,1025.2,411.1"/>
		</g>
	</mask>
	<path id="Fill-97" sketch:type="MSShapeGroup" class="st68" d="M918,625.2c-6.4,10-11,14-20.3,18.5c-9.5,4.1-15.5,4.9-27.3,3.1
		c6.1,13,21.5,12.2,32.4,7.9C913.1,649.3,923.8,638.3,918,625.2"/>
	<defs>
		<filter id="Adobe_OpacityMaskFilter_34_" filterUnits="userSpaceOnUse" x="1054.7" y="583.9" width="49.3" height="32.3">
			<feColorMatrix  type="matrix" values="1 0 0 0 0  0 1 0 0 0  0 0 1 0 0  0 0 0 1 0"/>
		</filter>
	</defs>
	<mask maskUnits="userSpaceOnUse" x="1054.7" y="583.9" width="49.3" height="32.3" id="mask-71_2_">
		<g id="XMLID_96_" class="st69">
			<path id="path-70_2_" class="st1" d="M1025.2,411.1c-20.3,9.1-42.6,12.9-64.8,11.2l0,0c-1.3,2.4-2.8,4.3-4.6,5.4l0,0
				c-2,0.6-4.3,0.6-6.8,0l0,0c-13.3,17.8-31,31.9-51.2,41.1l0,0c-27,12.2-57.4,15.1-86.3,8.1l0,0c47,95.3,143.2,144,217.7,110.4l0,0
				c74.4-33.8,100.4-137.9,58.8-235.6l0,0C1074.2,377.9,1052.2,398.8,1025.2,411.1"/>
		</g>
	</mask>
	<path id="Fill-100" sketch:type="MSShapeGroup" class="st70" d="M1102.4,583.9c-6.4,10-11,14-20.3,18.5c-9.5,4.1-15.5,4.9-27.3,3.1
		c6.1,13,21.5,12.2,32.4,7.9C1097.5,608,1108.2,597,1102.4,583.9"/>
	<defs>
		<filter id="Adobe_OpacityMaskFilter_35_" filterUnits="userSpaceOnUse" x="1119.5" y="554.6" width="49.3" height="32.3">
			<feColorMatrix  type="matrix" values="1 0 0 0 0  0 1 0 0 0  0 0 1 0 0  0 0 0 1 0"/>
		</filter>
	</defs>
	<mask maskUnits="userSpaceOnUse" x="1119.5" y="554.6" width="49.3" height="32.3" id="mask-73_2_">
		<g id="XMLID_94_" class="st71">
			<path id="path-72_2_" class="st1" d="M1025.2,411.1c-20.3,9.1-42.6,12.9-64.8,11.2l0,0c-1.3,2.4-2.8,4.3-4.6,5.4l0,0
				c-2,0.6-4.3,0.6-6.8,0l0,0c-13.3,17.8-31,31.9-51.2,41.1l0,0c-27,12.2-57.4,15.1-86.3,8.1l0,0c47,95.3,143.2,144,217.7,110.4l0,0
				c74.4-33.8,100.4-137.9,58.8-235.6l0,0C1074.2,377.9,1052.2,398.8,1025.2,411.1"/>
		</g>
	</mask>
	<path id="Fill-103" sketch:type="MSShapeGroup" class="st72" d="M1167.2,554.6c-6.4,10-11,14-20.3,18.5c-9.5,4.1-15.5,4.9-27.3,3.1
		c6.1,13,21.5,12.2,32.4,7.9C1162.3,578.6,1173,567.7,1167.2,554.6"/>
	<defs>
		<filter id="Adobe_OpacityMaskFilter_36_" filterUnits="userSpaceOnUse" x="989.9" y="613.2" width="49.3" height="32.3">
			<feColorMatrix  type="matrix" values="1 0 0 0 0  0 1 0 0 0  0 0 1 0 0  0 0 0 1 0"/>
		</filter>
	</defs>
	<mask maskUnits="userSpaceOnUse" x="989.9" y="613.2" width="49.3" height="32.3" id="mask-75_2_">
		<g id="XMLID_92_" class="st73">
			<path id="path-74_2_" class="st1" d="M1025.2,411.1c-20.3,9.1-42.6,12.9-64.8,11.2l0,0c-1.3,2.4-2.8,4.3-4.6,5.4l0,0
				c-2,0.6-4.3,0.6-6.8,0l0,0c-13.3,17.8-31,31.9-51.2,41.1l0,0c-27,12.2-57.4,15.1-86.3,8.1l0,0c47,95.3,143.2,144,217.7,110.4l0,0
				c74.4-33.8,100.4-137.9,58.8-235.6l0,0C1074.2,377.9,1052.2,398.8,1025.2,411.1"/>
		</g>
	</mask>
	<path id="Fill-106" sketch:type="MSShapeGroup" class="st74" d="M1037.5,613.2c-6.4,10-11,14-20.3,18.5c-9.5,4.1-15.5,4.9-27.3,3.1
		c6.1,13,21.5,12.2,32.4,7.9C1032.7,637.3,1043.4,626.3,1037.5,613.2"/>
	<defs>
		<filter id="Adobe_OpacityMaskFilter_37_" filterUnits="userSpaceOnUse" x="925.1" y="642.6" width="49.3" height="32.3">
			<feColorMatrix  type="matrix" values="1 0 0 0 0  0 1 0 0 0  0 0 1 0 0  0 0 0 1 0"/>
		</filter>
	</defs>
	<mask maskUnits="userSpaceOnUse" x="925.1" y="642.6" width="49.3" height="32.3" id="mask-77_2_">
		<g id="XMLID_90_" class="st75">
			<path id="path-76_2_" class="st1" d="M960.4,422.3c-1.3,2.4-2.8,4.3-4.6,5.4c-2,0.6-4.3,0.6-6.8,0c-13.3,17.8-31,31.9-51.2,41.1
				c-27,12.2-57.4,15.1-86.3,8.1c47,95.3,143.2,144,217.7,110.4c74.4-33.8,100.4-137.9,58.8-235.6c-13.6,26.2-35.7,47.1-62.7,59.4
				C1004.9,420.1,982.6,424,960.4,422.3z"/>
		</g>
	</mask>
	<path id="Fill-109" sketch:type="MSShapeGroup" class="st76" d="M972.7,642.6c-6.4,10-11,14-20.3,18.5c-9.5,4.1-15.5,4.9-27.3,3.1
		c6.1,13,21.5,12.2,32.4,7.9C967.9,666.7,978.6,655.7,972.7,642.6"/>
</g>
</svg>
