<?xml version="1.0" encoding="utf-8"?>
<!-- Generator: Adobe Illustrator 19.2.1, SVG Export Plug-In . SVG Version: 6.00 Build 0)  -->
<svg version="1.1" id="Layer_1" xmlns="http://www.w3.org/2000/svg" xmlns:xlink="http://www.w3.org/1999/xlink" x="0px" y="0px"
	 viewBox="0 0 1682.4 636.3" style="enable-background:new 0 0 1682.4 636.3;" xml:space="preserve">
<style type="text/css">
	.st0{fill:#FFFFFF;}
	.st1{fill:#69970B;}
</style>
<g transform="translate(0 -546.2)">
	<g id="mask-77">
		<path id="path-76" class="st0" d="M283.4,892.3c-1.1,2.3-2.8,4.3-4.9,5.7c-2.4,0.6-4.9,0.6-7.3,0c-33.9,45-91.3,65.6-146,52.3
			c49.9,101.1,151.9,152.8,231,117.1c79-35.9,106.6-146.4,62.4-250C392.8,867.3,339.5,896.8,283.4,892.3z"/>
	</g>
</g>
<g transform="translate(0 -546.2)">
	<g id="mask-75">
		<path id="path-74" class="st0" d="M352.2,880.4c-21.6,9.6-45.2,13.7-68.8,11.9l0,0c-1.1,2.3-2.8,4.3-4.9,5.7l0,0
			c-2.4,0.6-4.9,0.6-7.3,0l0,0c-14.2,18.9-32.9,33.9-54.4,43.6l0,0c-28.7,13-60.9,16-91.6,8.6l0,0c49.9,101.1,151.9,152.8,231,117.1
			l0,0c79-35.9,106.6-146.4,62.4-250l0,0C404.2,845.2,380.8,867.4,352.2,880.4"/>
	</g>
</g>
<g transform="translate(0 -546.2)">
	<g id="mask-73">
		<path id="path-72" class="st0" d="M352.2,880.4c-21.6,9.6-45.2,13.7-68.8,11.9l0,0c-1.1,2.3-2.8,4.3-4.9,5.7l0,0
			c-2.4,0.6-4.9,0.6-7.3,0l0,0c-14.2,18.9-32.9,33.9-54.4,43.6l0,0c-28.7,13-60.9,16-91.6,8.6l0,0c49.9,101.1,151.9,152.8,231,117.1
			l0,0c79-35.9,106.6-146.4,62.4-250l0,0C404.2,845.2,380.8,867.4,352.2,880.4"/>
	</g>
</g>
<g transform="translate(0 -546.2)">
	<g id="mask-71">
		<path id="path-70" class="st0" d="M352.2,880.4c-21.6,9.6-45.2,13.7-68.8,11.9l0,0c-1.1,2.3-2.8,4.3-4.9,5.7l0,0
			c-2.4,0.6-4.9,0.6-7.3,0l0,0c-14.2,18.9-32.9,33.9-54.4,43.6l0,0c-28.7,13-60.9,16-91.6,8.6l0,0c49.9,101.1,151.9,152.8,231,117.1
			l0,0c79-35.9,106.6-146.4,62.4-250l0,0C404.2,845.2,380.8,867.4,352.2,880.4"/>
	</g>
</g>
<g transform="translate(0 -546.2)">
	<g id="mask-69">
		<path id="path-68" class="st0" d="M352.2,880.4c-21.6,9.6-45.2,13.7-68.8,11.9l0,0c-1.1,2.3-2.8,4.3-4.9,5.7l0,0
			c-2.4,0.6-4.9,0.6-7.3,0l0,0c-14.2,18.9-32.9,33.9-54.4,43.6l0,0c-28.7,13-60.9,16-91.6,8.6l0,0c49.9,101.1,151.9,152.8,231,117.1
			l0,0c79-35.9,106.6-146.4,62.4-250l0,0C404.2,845.2,380.8,867.4,352.2,880.4"/>
	</g>
</g>
<g transform="translate(0 -546.2)">
	<g id="mask-67">
		<path id="path-66" class="st0" d="M352.2,880.4c-21.6,9.6-45.2,13.7-68.8,11.9l0,0c-1.1,2.3-2.8,4.3-4.9,5.7l0,0
			c-2.4,0.6-4.9,0.6-7.3,0l0,0c-14.2,18.9-32.9,33.9-54.4,43.6l0,0c-28.7,13-60.9,16-91.6,8.6l0,0c49.9,101.1,151.9,152.8,231,117.1
			l0,0c79-35.9,106.6-146.4,62.4-250l0,0C404.2,845.2,380.8,867.4,352.2,880.4"/>
	</g>
</g>
<g transform="translate(0 -546.2)">
	<g id="mask-65">
		<path id="path-64" class="st0" d="M352.2,880.4c-21.6,9.6-45.2,13.7-68.8,11.9l0,0c-1.1,2.3-2.8,4.3-4.9,5.7l0,0
			c-2.4,0.6-4.9,0.6-7.3,0l0,0c-14.2,18.9-32.9,33.9-54.4,43.6l0,0c-28.7,13-60.9,16-91.6,8.6l0,0c49.9,101.1,151.9,152.8,231,117.1
			l0,0c79-35.9,106.6-146.4,62.4-250l0,0C404.2,845.2,380.8,867.4,352.2,880.4"/>
	</g>
</g>
<g transform="translate(0 -546.2)">
	<g id="mask-63">
		<path id="path-62" class="st0" d="M352.2,880.4c-21.6,9.6-45.2,13.7-68.8,11.9l0,0c-1.1,2.3-2.8,4.3-4.9,5.7l0,0
			c-2.4,0.6-4.9,0.6-7.3,0l0,0c-14.2,18.9-32.9,33.9-54.4,43.6l0,0c-28.7,13-60.9,16-91.6,8.6l0,0c49.9,101.1,151.9,152.8,231,117.1
			l0,0c79-35.9,106.6-146.4,62.4-250l0,0C404.2,845.2,380.8,867.4,352.2,880.4"/>
	</g>
</g>
<g transform="translate(0 -546.2)">
	<g id="mask-61">
		<path id="path-60" class="st0" d="M352.2,880.4c-21.6,9.6-45.2,13.7-68.8,11.9l0,0c-1.1,2.3-2.8,4.3-4.9,5.7l0,0
			c-2.4,0.6-4.9,0.6-7.3,0l0,0c-14.2,18.9-32.9,33.9-54.4,43.6l0,0c-28.7,13-60.9,16-91.6,8.6l0,0c49.9,101.1,151.9,152.8,231,117.1
			l0,0c79-35.9,106.6-146.4,62.4-250l0,0C404.2,845.2,380.8,867.4,352.2,880.4"/>
	</g>
</g>
<g transform="translate(0 -546.2)">
	<g id="mask-59">
		<path id="path-58" class="st0" d="M352.2,880.4c-21.6,9.6-45.2,13.7-68.8,11.9l0,0c-1.1,2.3-2.8,4.3-4.9,5.7l0,0
			c-2.4,0.6-4.9,0.6-7.3,0l0,0c-14.2,18.9-32.9,33.9-54.4,43.6l0,0c-28.7,13-60.9,16-91.6,8.6l0,0c49.9,101.1,151.9,152.8,231,117.1
			l0,0c79-35.9,106.6-146.4,62.4-250l0,0C404.2,845.2,380.8,867.4,352.2,880.4"/>
	</g>
</g>
<g transform="translate(0 -546.2)">
	<g id="mask-55">
		<path id="path-54" class="st0" d="M352.2,880.4c-21.6,9.6-45.2,13.7-68.8,11.9l0,0c-1.1,2.3-2.8,4.3-4.9,5.7l0,0
			c-2.4,0.6-4.9,0.6-7.3,0l0,0c-14.2,18.9-32.9,33.9-54.4,43.6l0,0c-28.7,13-60.9,16-91.6,8.6l0,0c49.9,101.1,151.9,152.8,231,117.1
			l0,0c79-35.9,106.6-146.4,62.4-250l0,0C404.2,845.2,380.8,867.4,352.2,880.4"/>
	</g>
</g>
<g transform="translate(0 -546.2)">
	<g id="mask-45">
		<path id="path-44" class="st0" d="M352.2,880.4c-21.6,9.6-45.2,13.7-68.8,11.9l0,0c-1.1,2.3-2.8,4.3-4.9,5.7l0,0
			c-2.4,0.6-4.9,0.6-7.3,0l0,0c-14.2,18.9-32.9,33.9-54.4,43.6l0,0c-28.7,13-60.9,16-91.6,8.6l0,0c49.9,101.1,151.9,152.8,231,117.1
			l0,0c79-35.9,106.6-146.4,62.4-250l0,0C404.2,845.2,380.8,867.4,352.2,880.4"/>
	</g>
</g>
<g transform="translate(0 -546.2)">
	<g id="mask-33">
		<path id="path-32" class="st0" d="M352.2,880.4c-21.6,9.6-45.2,13.7-68.8,11.9l0,0c-1.1,2.3-2.8,4.3-4.9,5.7l0,0
			c-2.4,0.6-4.9,0.6-7.3,0l0,0c-14.2,18.9-32.9,33.9-54.4,43.6l0,0c-28.7,13-60.9,16-91.6,8.6l0,0c49.9,101.1,151.9,152.8,231,117.1
			l0,0c79-35.9,106.6-146.4,62.4-250l0,0C404.2,845.2,380.8,867.4,352.2,880.4"/>
	</g>
</g>
<g transform="translate(0 -546.2)">
	<g id="mask-27">
		<path id="path-26" class="st0" d="M352.2,880.4c-21.6,9.6-45.2,13.7-68.8,11.9l0,0c-1.1,2.3-2.8,4.3-4.9,5.7l0,0
			c-2.4,0.6-4.9,0.6-7.3,0l0,0c-14.2,18.9-32.9,33.9-54.4,43.6l0,0c-28.7,13-60.9,16-91.6,8.6l0,0c49.9,101.1,151.9,152.8,231,117.1
			l0,0c79-35.9,106.6-146.4,62.4-250l0,0C404.2,845.2,380.8,867.4,352.2,880.4"/>
	</g>
</g>
<g transform="translate(0 -546.2)">
	<g id="mask-19">
		<path id="path-18" class="st0" d="M352.2,880.4c-21.6,9.6-45.2,13.7-68.8,11.9l0,0c-1.1,2.3-2.8,4.3-4.9,5.7l0,0
			c-2.4,0.6-4.9,0.6-7.3,0l0,0c-14.2,18.9-32.9,33.9-54.4,43.6l0,0c-28.7,13-60.9,16-91.6,8.6l0,0c49.9,101.1,151.9,152.8,231,117.1
			l0,0c79-35.9,106.6-146.4,62.4-250l0,0C404.2,845.2,380.8,867.4,352.2,880.4"/>
	</g>
</g>
<g transform="translate(0 -546.2)">
	<g id="mask-15">
		<path id="path-14" class="st0" d="M352.2,880.4c-21.6,9.6-45.2,13.7-68.8,11.9l0,0c-1.1,2.3-2.8,4.3-4.9,5.7l0,0
			c-2.4,0.6-4.9,0.6-7.3,0l0,0c-14.2,18.9-32.9,33.9-54.4,43.6l0,0c-28.7,13-60.9,16-91.6,8.6l0,0c49.9,101.1,151.9,152.8,231,117.1
			l0,0c79-35.9,106.6-146.4,62.4-250l0,0C404.2,845.2,380.8,867.4,352.2,880.4"/>
	</g>
</g>
<g transform="translate(0 -546.2)">
	<g id="mask-11">
		<path id="path-10" class="st0" d="M352.2,880.4c-21.6,9.6-45.2,13.7-68.8,11.9l0,0c-1.1,2.3-2.8,4.3-4.9,5.7l0,0
			c-2.4,0.6-4.9,0.6-7.3,0l0,0c-14.2,18.9-32.9,33.9-54.4,43.6l0,0c-28.7,13-60.9,16-91.6,8.6l0,0c49.9,101.1,151.9,152.8,231,117.1
			l0,0c79-35.9,106.6-146.4,62.4-250l0,0C404.2,845.2,380.8,867.4,352.2,880.4"/>
	</g>
</g>
<g transform="translate(0 -546.2)">
	<g id="mask-9">
		<path id="path-8" class="st0" d="M352.2,880.4c-21.6,9.6-45.2,13.7-68.8,11.9l0,0c-1.1,2.3-2.8,4.3-4.9,5.7l0,0
			c-2.4,0.6-4.9,0.6-7.3,0l0,0c-14.2,18.9-32.9,33.9-54.4,43.6l0,0c-28.7,13-60.9,16-91.6,8.6l0,0c49.9,101.1,151.9,152.8,231,117.1
			l0,0c79-35.9,106.6-146.4,62.4-250l0,0C404.2,845.2,380.8,867.4,352.2,880.4"/>
	</g>
</g>
<g transform="translate(0 -546.2)">
	<g id="mask-7">
		<path id="path-6" class="st0" d="M352.2,880.4c-21.6,9.6-45.2,13.7-68.8,11.9l0,0c-1.1,2.3-2.8,4.3-4.9,5.7l0,0
			c-2.4,0.6-4.9,0.6-7.3,0l0,0c-14.2,18.9-32.9,33.9-54.4,43.6l0,0c-28.7,13-60.9,16-91.6,8.6l0,0c49.9,101.1,151.9,152.8,231,117.1
			l0,0c79-35.9,106.6-146.4,62.4-250l0,0C404.2,845.2,380.8,867.4,352.2,880.4"/>
	</g>
</g>
<g transform="translate(0 -546.2)">
	<g id="mask-5">
		<path id="path-4" class="st0" d="M0,546.2h606.2v636.3H0V546.2z"/>
	</g>
</g>
<g transform="translate(0 -546.2)">
	<g id="mask-3">
		<path id="path-2" class="st0" d="M729.3,631.5h953.1v383.5H729.3V631.5z"/>
	</g>
</g>
<title>3</title>
<g id="Page-1">
	<g>
		<path id="Fill-1" class="st1" d="M1564.3,242.1c10.9,0,27.5,3.7,34.2,5.8v75.2c0,51.2-25.4,102.9-59.6,102.9
			c-37.8,0-41.5-44.4-41.5-93C1497.4,280.2,1512.4,242.1,1564.3,242.1L1564.3,242.1L1564.3,242.1z M859.9,242.1
			c10.9,0,27.5,3.7,34.2,5.8v75.2c0,51.2-25.4,102.9-59.6,102.9c-37.8,0-41.5-44.4-41.5-93C793,280.2,808,242.1,859.9,242.1
			L859.9,242.1L859.9,242.1z M1019.6,204.5v173.5c0,55.4,21.2,89.9,75.7,89.9c36.8,0,73.6-16.2,92.2-57c4.7,38.1,25.9,58,25.9,58
			l46.1-18.8c0,0-24.9-28.7-24.9-111.3V204.5h-59.1V332c0,55.4-32.1,92-62.7,92c-24.9,0-34.2-18.3-34.2-47V204.5H1019.6
			L1019.6,204.5z M1557.6,200.3c-73.6,0-123.8,58.5-123.8,137.9c0,78.4,30.6,129.6,95.3,129.6c44,0,69.4-21.4,80.8-63.2
			c2.6,42.3,26.4,64.3,26.4,64.3l46.1-18.8c0,0-24.9-28.7-24.9-111.3V215.4C1652.9,214.4,1599,200.3,1557.6,200.3L1557.6,200.3
			L1557.6,200.3z M853.1,200.3c-73.6,0-123.8,58.5-123.8,137.9c0,78.4,30.6,129.6,95.3,129.6c44,0,69.4-21.4,80.8-63.2
			c2.6,42.3,26.4,64.3,26.4,64.3L978,450c0,0-24.9-28.7-24.9-111.3V215.4C948.5,214.4,894.6,200.3,853.1,200.3L853.1,200.3
			L853.1,200.3z M1363,85.3l-59.1,11v311.9c0,34,18.7,58.5,57.5,58.5c33.2,0,54.4-9.4,54.4-9.4l-7.2-37.6c-8.9,2.6-18.2,4-27.5,4.2
			c-11.9,0-18.1-5.8-18.1-21.4L1363,85.3L1363,85.3L1363,85.3z"/>
	</g>
</g>
<g id="Page-1-2">
	<g id="Group-3">
		<g>
			<path id="Fill-1-2" class="st1" d="M418.7,271.1c44.1,103.7,16.5,214.2-62.5,250.1c-79.1,35.7-181.1-16-231-117.1
				c54.7,13.3,112.1-7.3,146-52.3c2.4,0.6,4.9,0.6,7.3,0c2.1-1.4,3.8-3.4,4.9-5.7C339.5,350.6,392.9,321.1,418.7,271.1L418.7,271.1
				L418.7,271.1z M248.5,286.4c10.8,3.5,36.3,9.2,37.3,16.4c0.7,9.2,0.2,38.5-9.5,44.2c-10.7,3.5-33.3-15.4-39.8-21.9
				C231.7,319.7,244.1,296.8,248.5,286.4L248.5,286.4z M298.6,201.9c3.6-1.6,7.9-0.1,9.5,3.5c1.6,3.6,0.1,7.8-3.5,9.4c0,0,0,0,0,0
				c-3.6,1.7-7.9,0.1-9.6-3.5C293.4,207.8,294.9,203.6,298.6,201.9C298.5,202,298.5,201.9,298.6,201.9L298.6,201.9L298.6,201.9z
				 M149.6,269.4c3.6-1.6,7.9-0.1,9.5,3.5c1.6,3.6,0.1,7.8-3.5,9.4c0,0,0,0,0,0c-3.6,1.6-7.9,0.1-9.5-3.5
				C144.4,275.3,146,271,149.6,269.4C149.6,269.4,149.6,269.4,149.6,269.4L149.6,269.4z M309,186.5c-19.7,9-28.3,32.2-19.3,51.9
				c4.5,9.8,12.7,17.3,22.9,20.8l0,0c20.5,7.2,43-3.6,50.3-24.1l0,0c7.2-20.4-3.6-42.8-24-49.9c-0.1,0-0.2-0.1-0.2-0.1l0,0
				C329,181.7,318.3,182.2,309,186.5L309,186.5z M160,253.9c-19.7,9-28.3,32.2-19.4,51.9c4.5,9.8,12.8,17.3,22.9,20.8l0,0
				c20.6,7.2,43.1-3.5,50.4-24.1l0,0c7.2-20.4-3.6-42.8-24-49.9c-0.1,0-0.1,0-0.2-0.1l0,0C180,249.1,169.4,249.6,160,253.9
				L160,253.9z M290,177c13.8-6.3,29.5-7.1,43.9-2.1c30.2,10.4,46.3,43.3,35.9,73.6c0,0.1-0.1,0.2-0.1,0.3
				c-10.8,30.3-44,46.2-74.4,35.6c-30.2-10.4-46.3-43.3-36-73.5C264.5,195.8,275.6,183.6,290,177L290,177L290,177z M141.1,244.4
				c13.8-6.4,29.5-7.1,43.9-2.1c30.5,10.7,46.6,44,35.9,74.5c-10.7,30.5-44,46.6-74.5,35.9c-30.5-10.7-46.6-44-35.9-74.5
				C115.7,263.3,126.8,251.1,141.1,244.4L141.1,244.4L141.1,244.4z M288.4,173.3c-31.1,14.2-44.8,50.9-30.6,82
				c7.1,15.4,20.1,27.3,36.2,32.8l0,0c32.5,11.3,68-5.7,79.6-38.1c11.3-32.3-5.7-67.6-38-78.9c-0.1,0-0.2-0.1-0.3-0.1l0,0
				C319.9,165.7,303.1,166.6,288.4,173.3L288.4,173.3L288.4,173.3z M139.4,240.8c-31.1,14.2-44.8,50.9-30.6,82
				c7.1,15.5,20.2,27.3,36.2,32.8l0,0c32.5,11.3,68-5.7,79.6-38.1c11.3-32.3-5.7-67.6-38-78.9c-0.1,0-0.2-0.1-0.3-0.1l0,0
				C171,233.2,154.2,234,139.4,240.8L139.4,240.8L139.4,240.8z M114.5,192c30.1-14,65.2-11.8,93.3,5.8c0.9-5.8,2.3-11.5,4.3-17
				C230,130,286,103.2,337.2,121l0,0c51.2,17.8,78.2,73.4,60.3,124.3c-15.7,44.4-61,71.4-107.8,64.1c0-3.5-0.1-6.6-0.2-8.7
				c-1.1-8.3-30.6-14.9-43.1-19c-5.1,12-19.4,38.5-13.9,44.8c1.5,1.5,3.7,3.6,6.4,5.8c-24.5,38.6-72.3,55.2-115.5,40.2
				C72.3,354.7,45.3,299,63.2,248.2C72,223.3,90.5,203,114.5,192L114.5,192L114.5,192z M1.7,131.9c-6.5,46.9,6.3,93.4,26.4,137
				c-3.1,50.9,20,99.8,61.3,129.7c-0.3,4.4-0.3,8.7-0.2,13c-14.9,10.4-27.2,24.2-35.9,40.2c-25.1,48.1-12.7,111,32.6,165
				c16.3-36.5,27.8-75,34.4-114.5c35.9,46,97.6,70.3,164.9,65.1c2,11.3,9.8,25.8,11.3,31.2c-4.4,8.2-12,21.1-12.6,29.1
				c-0.8,9.5,14-6.2,18-9.3c2.7,4.5,3.8,16.9,10.2,18c7.4,1.2,7.2-17.7,5.6-23.7c4.4,1.8,11.8,7.3,15.4,3.8
				c3.2-3.1-0.2-9.2-5.8-12.8c-5.4-3.4-10.9-6.5-16.7-9.3c-3.5-6.6-8.9-19-14.6-27.9c49.7-6.1,96.4-27.3,133.7-60.7
				c3.1,10.1,9,22.4,11.7,29.4c-1.6,6.1-2.9,12.3-3.8,18.6c-0.9,6.5,1.4,13.1,5.9,12.7c5-0.4,5.7-9.6,7.2-14.1
				c3.5,5.1,17.7,17.6,21.7,11.3c3.5-5.5-5.3-14.5-6.9-19.5c5-1,26.6-1.7,18.9-7.4c-6.5-4.7-21.2-7.6-30.4-9.6
				c-3.1-4.6-9-19.9-16.2-28.8c48.2-47.3,70.1-109.5,58.5-166.7c34.3,21.1,71.2,37.7,109.7,49.4c-11.2-69.4-50.9-120-103.9-132.7
				c-17.8-4-36.3-3.9-54,0.5c-3.2-2.9-6.6-5.8-10.1-8.5c4.3-50.6-17.6-100-58.1-130.7c-20-43.8-47-84-87-110
				c-14.4,21.3-29.7,47-35.8,71.2c-67.9,1.1-132.3,30.3-178,80.5C56.9,140.4,27.3,135,1.7,131.9L1.7,131.9L1.7,131.9z"/>
		</g>
	</g>
	<g id="Group-112">
		<g id="Group-33">
			<g>
				<path id="Fill-31" class="st1" d="M302.1,353.8c-6.8,10.6-11.7,14.9-21.5,19.6c-10,4.3-16.5,5.2-29,3.3
					c6.5,13.8,22.8,12.9,34.4,8.4C296.9,379.4,308.3,367.7,302.1,353.8"/>
			</g>
		</g>
		<g id="Group-36">
			<g>
				<path id="Fill-34" class="st1" d="M439.6,291.5c-6.8,10.6-11.7,14.9-21.5,19.6c-10,4.3-16.5,5.2-29,3.3
					c6.5,13.8,22.8,12.9,34.4,8.4C434.4,317,445.8,305.4,439.6,291.5"/>
			</g>
		</g>
		<g id="Group-39">
			<g>
				<path id="Fill-37" class="st1" d="M370.8,322.6c-6.8,10.6-11.7,14.9-21.5,19.6c-10,4.3-16.5,5.2-29,3.3
					c6.5,13.8,22.8,12.9,34.4,8.4C365.7,348.2,377,336.5,370.8,322.6"/>
			</g>
		</g>
		<g id="Group-42">
			<g>
				<path id="Fill-40" class="st1" d="M233.3,384.9c-6.8,10.6-11.7,14.9-21.5,19.6c-10,4.3-16.5,5.2-29,3.3
					c6.5,13.8,22.8,12.9,34.4,8.4C228.1,410.5,239.5,398.8,233.3,384.9"/>
			</g>
		</g>
		<g id="Group-45">
			<g>
				<path id="Fill-43" class="st1" d="M164.5,416c-6.8,10.6-11.7,14.9-21.5,19.6c-10,4.3-16.5,5.2-29,3.3
					c6.5,13.8,22.8,12.9,34.4,8.4C159.3,441.6,170.7,430,164.5,416"/>
			</g>
		</g>
		<g id="Group-48">
			<g>
				<path id="Fill-46" class="st1" d="M360.2,372.2c-6.8,10.6-11.7,14.9-21.5,19.6c-10,4.3-16.5,5.2-29,3.3
					c6.5,13.8,22.8,12.9,34.4,8.4C355,397.7,366.4,386.1,360.2,372.2"/>
			</g>
		</g>
		<g id="Group-51">
			<g>
				<path id="Fill-49" class="st1" d="M429,341c-6.8,10.6-11.7,14.9-21.5,19.6c-10,4.3-16.5,5.2-29,3.3c6.5,13.8,22.8,12.9,34.4,8.4
					C423.8,366.6,435.2,355,429,341"/>
			</g>
		</g>
		<g id="Group-54">
			<g>
				<path id="Fill-52" class="st1" d="M291.4,403.3c-6.8,10.6-11.7,14.9-21.5,19.6c-10,4.3-16.5,5.2-29,3.3
					c6.5,13.8,22.8,12.9,34.4,8.4C286.2,428.9,297.6,417.2,291.4,403.3"/>
			</g>
		</g>
		<g id="Group-57">
			<g>
				<path id="Fill-55" class="st1" d="M222.6,434.4c-6.8,10.6-11.7,14.9-21.5,19.6c-10,4.3-16.5,5.2-29,3.3
					c6.5,13.8,22.8,12.9,34.4,8.4C217.4,460,228.8,448.4,222.6,434.4"/>
			</g>
		</g>
		<g id="Group-60">
			<g>
				<path id="Fill-58" class="st1" d="M346.5,423.1c-6.8,10.6-11.7,14.9-21.5,19.6c-10,4.3-16.5,5.2-29,3.3
					c6.5,13.8,22.8,12.9,34.4,8.4C341.3,448.6,352.7,437,346.5,423.1"/>
			</g>
		</g>
		<g id="Group-63">
			<g>
				<path id="Fill-61" class="st1" d="M484.1,360.8c-6.8,10.6-11.7,14.9-21.5,19.6c-10,4.3-16.5,5.2-29,3.3
					c6.5,13.8,22.8,12.9,34.4,8.4C478.9,386.4,490.3,374.7,484.1,360.8"/>
			</g>
		</g>
		<g id="Group-66">
			<g>
				<path id="Fill-64" class="st1" d="M415.3,391.9c-6.8,10.6-11.7,14.9-21.5,19.6c-10,4.3-16.5,5.2-29,3.3
					c6.5,13.8,22.8,12.9,34.4,8.4C410.1,417.5,421.5,405.9,415.3,391.9"/>
			</g>
		</g>
		<g id="Group-69">
			<g>
				<path id="Fill-67" class="st1" d="M277.7,454.2c-6.8,10.6-11.7,14.9-21.5,19.6c-10,4.3-16.5,5.2-29,3.3
					c6.5,13.8,22.8,12.9,34.4,8.4C272.5,479.8,283.9,468.1,277.7,454.2"/>
			</g>
		</g>
		<g id="Group-72">
			<g>
				<path id="Fill-70" class="st1" d="M208.9,485.3c-6.8,10.6-11.7,14.9-21.5,19.6c-10,4.3-16.5,5.2-29,3.3
					c6.5,13.8,22.8,12.9,34.4,8.4C203.8,510.9,215.1,499.3,208.9,485.3"/>
			</g>
		</g>
		<g id="Group-75">
			<g>
				<path id="Fill-73" class="st1" d="M404.6,441.5c-6.8,10.6-11.7,14.9-21.5,19.6c-10,4.3-16.5,5.2-29,3.3
					c6.5,13.8,22.8,12.9,34.4,8.4C399.4,467,410.8,455.4,404.6,441.5"/>
			</g>
		</g>
		<g id="Group-78">
			<g>
				<path id="Fill-76" class="st1" d="M473.4,410.3c-6.8,10.6-11.7,14.9-21.5,19.6c-10,4.3-16.5,5.2-29,3.3
					c6.5,13.8,22.8,12.9,34.4,8.4C468.2,435.9,479.6,424.3,473.4,410.3"/>
			</g>
		</g>
		<g id="Group-81">
			<g>
				<path id="Fill-79" class="st1" d="M335.8,472.6c-6.8,10.6-11.7,14.9-21.5,19.6c-10,4.3-16.5,5.2-29,3.3
					c6.5,13.8,22.8,12.9,34.4,8.4C330.7,498.2,342,486.5,335.8,472.6"/>
			</g>
		</g>
		<g id="Group-84">
			<g>
				<path id="Fill-82" class="st1" d="M267,503.8c-6.8,10.6-11.7,14.9-21.5,19.6c-10,4.3-16.5,5.2-29,3.3
					c6.5,13.8,22.8,12.9,34.4,8.4C261.8,529.4,273.2,517.7,267,503.8"/>
			</g>
		</g>
		<g id="Group-87">
			<g>
				<path id="Fill-85" class="st1" d="M376,499.1c-6.8,10.6-11.7,14.9-21.5,19.6c-10,4.3-16.5,5.2-29,3.3
					c6.5,13.8,22.8,12.9,34.4,8.4C370.8,524.7,382.2,513.1,376,499.1"/>
			</g>
		</g>
		<g id="Group-93">
			<g>
				<path id="Fill-91" class="st1" d="M444.8,468c-6.8,10.6-11.7,14.9-21.5,19.6c-10,4.3-16.5,5.2-29,3.3
					c6.5,13.8,22.8,12.9,34.4,8.4C439.6,493.6,451,481.9,444.8,468"/>
			</g>
		</g>
		<g id="Group-96">
			<g>
				<path id="Fill-94" class="st1" d="M307.2,530.3c-6.8,10.6-11.7,14.9-21.5,19.6c-10,4.3-16.5,5.2-29,3.3
					c6.5,13.8,22.8,12.9,34.4,8.4C302,555.8,313.4,544.2,307.2,530.3"/>
			</g>
		</g>
	</g>
</g>
</svg>
