<?xml version="1.0" encoding="UTF-8" standalone="no"?>
<svg width="174px" height="109px" viewBox="0 0 174 109" version="1.1" xmlns="http://www.w3.org/2000/svg" xmlns:xlink="http://www.w3.org/1999/xlink">
    <!-- Generator: Sketch 3.6 (26304) - http://www.bohemiancoding.com/sketch -->
    <title>Group 14</title>
    <desc>Created with Sketch.</desc>
    <defs></defs>
    <g id="Klickdummy-Moderator" stroke="none" stroke-width="1" fill="none" fill-rule="evenodd">
        <g id="1.-Rooms-overview-" transform="translate(-425.000000, -119.000000)">
            <g id="Group-14" transform="translate(425.000000, 119.000000)">
                <rect id="Rectangle-696" stroke="#EEC843" stroke-width="4" fill="#499A6A" x="18.8837209" y="0" width="137.581395" height="74.2512077" rx="7"></rect>
                <rect id="Rectangle-697" fill="#FFFFFF" x="41" y="67" width="16.8604651" height="3.35748792"></rect>
                <text id="direktdemokratische" font-family="AlwaysInMyHeart, Always In My Heart" font-size="14.7729469" font-weight="normal" line-spacing="14" fill="#F4F4F4">
                    <tspan x="43.3998969" y="26.115942">direktdemokratische</tspan>
                    <tspan x="41.686235" y="41.115942">Forderungen im 19. </tspan>
                    <tspan x="58.4313703" y="56.115942">Jahrhundert</tspan>
                </text>
                <rect id="Rectangle-698" fill="#8B572A" x="0" y="87.3671498" width="174" height="6.71497585"></rect>
                <path d="M19.6495008,77.9448662 C19.6495008,78.3453132 19.9714233,78.6696572 20.3688806,78.6696572 L31.1595783,78.6696572 L31.1595783,77.2200751 L20.3688806,77.2200751 C19.9714233,77.2200751 19.6495008,77.5444191 19.6495008,77.9448662" id="Fill-273" fill="#3E3E3F"></path>
                <path d="M36.9146171,84.4679856 L34.2788093,80.6566719 C35.4521178,79.8789711 36.3337178,78.739962 36.8167814,77.3171971 C37.7555721,74.5517569 37.0052589,71.2586688 34.9503504,69.1227096 C33.2569302,67.362917 30.8934078,66.5982624 28.2820589,66.9135465 L28.2820589,65.6234184 L23.9657798,65.6234184 L23.9657798,74.320911 L28.2820589,74.320911 L28.2820589,70.206997 C30.0661209,69.8797539 31.5555969,70.2805633 32.6260341,71.3931176 C33.836031,72.6509924 34.2996713,74.6528653 33.753662,76.261539 C33.557631,76.8395598 33.1727628,77.5118035 32.4274853,77.9800186 L32.3055504,77.8035319 C32.0372217,77.4367877 31.6120682,77.2200751 31.1595783,77.2200751 C30.7070884,77.2200751 30.2819349,77.4367877 30.0136062,77.8035319 L25.4045395,84.4679856 L16.7719814,84.4679854 L16.7719814,87.3671488 L38.3533767,87.3671488 L38.3533767,84.4679854" id="Fill-274" fill="#A4A4A4"></path>
                <path d="M27.2029891,64.5362319 L25.0448496,64.5362319 L25.0448496,65.6234184 L27.2029891,65.6234184 L27.2029891,64.5362319 Z" id="Fill-275" fill="#3E3E3F"></path>
                <path d="M27.5626791,75.7704931 L24.6851597,75.7704931 L24.6851597,74.320911 L27.5626791,74.320911 L27.5626791,75.7704931 Z" id="Fill-276" fill="#3E3E3F"></path>
                <path d="M34.2789532,80.6568168 C35.4522617,79.879116 36.3338617,78.7401069 36.8169253,77.3169797 C37.7553563,74.5515395 37.0054028,71.2584514 34.9504943,69.1228546 C33.2570741,67.3626995 30.8931919,66.5984074 28.2822028,66.9136915 L28.2822028,70.207142 C30.0662648,69.8798988 31.5557408,70.2807083 32.626178,71.3932625 C33.8361749,72.650775 34.2998152,74.6530102 33.7538059,76.261684 C33.5577749,76.8397048 33.1729067,77.5119485 32.4276291,77.9798011 L32.3056943,77.8036769 C32.0373656,77.4365702 31.6118524,77.2202201 31.1597222,77.2202201 C30.7072322,77.2202201 30.2817191,77.4365702 30.0133904,77.8036769 L25.4046834,84.4681305 L36.9147609,84.4681305 L34.2789532,80.6568168 Z" id="Fill-277" fill="#F0F1F1"></path>
                <path d="M32.3057302,77.8035682 C32.0374016,77.4368239 31.6118884,77.2201114 31.1597581,77.2201114 C30.7072682,77.2201114 30.281755,77.4368239 30.0134264,77.8035682 L25.4047194,84.4680218 L28.6027225,84.4680218 L33.5013395,79.5325572 L32.3057302,77.8035682 Z" id="Fill-278" fill="#D1D1D1"></path>
                <path d="M26.1239194,74.320911 L24.6851597,74.320911 L24.6851597,75.7704931 L26.1239194,75.7704931 L26.1239194,74.320911 Z" id="Fill-279" fill="#5B5C5F"></path>
                <path d="M26.1239194,64.5362319 L25.0448496,64.5362319 L25.0448496,65.6234184 L26.1239194,65.6234184 L26.1239194,64.5362319 Z" id="Fill-280" fill="#5B5C5F"></path>
                <path d="M26.1239194,65.6234184 L23.9657798,65.6234184 L23.9657798,74.320911 L26.1239194,74.320911 L26.1239194,65.6234184 Z" id="Fill-281" fill="#D1D1D1"></path>
                <path d="M31.8789581,79.3944483 C31.8789581,79.7948953 31.5570357,80.1192393 31.1595783,80.1192393 C30.7621209,80.1192393 30.4401984,79.7948953 30.4401984,79.3944483 C30.4401984,78.9940012 30.7621209,78.6696572 31.1595783,78.6696572 C31.5570357,78.6696572 31.8789581,78.9940012 31.8789581,79.3944483" id="Fill-282" fill="#5B5C5F"></path>
                <rect id="Rectangle-698" fill="#8B572A" x="25.627907" y="90.7246377" width="130.837209" height="18.2753623"></rect>
                <rect id="Rectangle-698" fill="#6C411A" x="25.627907" y="94.0821256" width="130.837209" height="5.37198068"></rect>
                <rect id="Rectangle-701" fill="#F6A623" x="141.627907" y="78.6376812" width="23.6046512" height="5.37198068"></rect>
                <rect id="Rectangle-701" fill="#D0011B" x="145" y="84.0096618" width="23.6046512" height="3.35748792"></rect>
                <rect id="Rectangle-701" fill="#05753E" x="145" y="77.294686" width="23.6046512" height="1.34299517"></rect>
                <rect id="Rectangle-704" fill="#FFFFFF" x="144.325581" y="79.9806763" width="4.04651163" height="2.68599034"></rect>
            </g>
        </g>
    </g>
</svg>