<?xml version="1.0" encoding="UTF-8" standalone="no"?>
<svg
   xmlns:dc="http://purl.org/dc/elements/1.1/"
   xmlns:cc="http://creativecommons.org/ns#"
   xmlns:rdf="http://www.w3.org/1999/02/22-rdf-syntax-ns#"
   xmlns:svg="http://www.w3.org/2000/svg"
   xmlns="http://www.w3.org/2000/svg"
   xmlns:sodipodi="http://sodipodi.sourceforge.net/DTD/sodipodi-0.dtd"
   xmlns:inkscape="http://www.inkscape.org/namespaces/inkscape"
   width="65px"
   height="64px"
   viewBox="0 0 65 64"
   version="1.1"
   id="svg2"
   inkscape:version="0.91 r13725"
   sodipodi:docname="hourglass.svg">
  <metadata
     id="metadata29">
    <rdf:RDF>
      <cc:Work
         rdf:about="">
        <dc:format>image/svg+xml</dc:format>
        <dc:type
           rdf:resource="http://purl.org/dc/dcmitype/StillImage" />
        <dc:title>Group</dc:title>
      </cc:Work>
    </rdf:RDF>
  </metadata>
  <sodipodi:namedview
     pagecolor="#ffffff"
     bordercolor="#666666"
     borderopacity="1"
     objecttolerance="10"
     gridtolerance="10"
     guidetolerance="10"
     inkscape:pageopacity="0"
     inkscape:pageshadow="2"
     inkscape:window-width="1054"
     inkscape:window-height="531"
     id="namedview27"
     showgrid="false"
     inkscape:zoom="3.6875"
     inkscape:cx="-3.0254237"
     inkscape:cy="32"
     inkscape:window-x="0"
     inkscape:window-y="547"
     inkscape:window-maximized="0"
     inkscape:current-layer="svg2" />
  <!-- Generator: Sketch 3.8.3 (29802) - http://www.bohemiancoding.com/sketch -->
  <title
     id="title4">Group</title>
  <desc
     id="desc6">Created with Sketch.</desc>
  <defs
     id="defs8" />
  <g
     style="fill:none;fill-rule:evenodd;stroke:none;stroke-width:1"
     id="Klickdummy-Moderator-6"
     transform="matrix(1.4375963,0,0,1.4375963,5.1856693,0.37288226)">
    <g
       id="5.7-Idea-detail-page:-Winner-1-"
       transform="translate(-191,-228)">
      <g
         id="hourglass"
         transform="translate(191,228)">
        <rect
           style="fill:#69970b"
           id="Rectangle-5530"
           x="0.36538461"
           y="0"
           width="37.634617"
           height="3.6666667" />
        <rect
           style="fill:#69970b"
           id="rect14"
           x="0"
           y="40.333332"
           width="37.634617"
           height="3.6666667" />
        <path
           style="fill:#8cb735"
           inkscape:connector-curvature="0"
           d="m 19.365385,40.333333 c 9.080836,0 16.442307,-8.208112 16.442307,-18.333333 -5.189282,0 -28.6635664,0 -32.8846151,0 0,10.125221 7.3614711,18.333333 16.4423081,18.333333 z"
           id="Oval-16"
           transform="matrix(-1,0,0,-1,38.73077,62.333334)" />
        <path
           style="fill:#dceec1"
           inkscape:connector-curvature="0"
           d="m 19.365385,40.333333 c 0,0 16.442307,-2.186541 16.442307,-9.750571 -5.189282,0 -28.6635664,1e-6 -32.8846151,0 0.3109749,7.224266 16.4423081,9.750571 16.4423081,9.750571 z"
           id="path17"
           transform="matrix(-1,0,0,-1,38.73077,70.916096)" />
        <path
           style="fill:#8cb735"
           inkscape:connector-curvature="0"
           d="m 19.365385,22 c 9.080836,0 16.442307,-8.208112 16.442307,-18.3333333 -5.189282,0 -28.6635664,3e-7 -32.8846151,0 C 2.9230769,13.791888 10.284548,22 19.365385,22 Z"
           id="path19" />
        <ellipse
           style="fill:#dceec1"
           id="Oval-20"
           cx="19.360775"
           cy="26.233334"
           rx="0.73076922"
           ry="0.73333335" />
        <ellipse
           style="fill:#dceec1"
           id="Oval-20-copy"
           cx="19.360775"
           cy="23.266666"
           rx="0.73076922"
           ry="0.73333335" />
        <ellipse
           style="fill:#dceec1"
           id="ellipse23"
           cx="19.365385"
           cy="29.233334"
           rx="0.73076922"
           ry="0.73333335" />
      </g>
    </g>
  </g>
</svg>
