<?xml version="1.0" encoding="UTF-8" standalone="no"?>
<svg width="65px" height="60px" viewBox="0 0 65 60" version="1.1" xmlns="http://www.w3.org/2000/svg" xmlns:xlink="http://www.w3.org/1999/xlink">
    <!-- Generator: Sketch 39 (31667) - http://www.bohemiancoding.com/sketch -->
    <title>Group</title>
    <desc>Created with Sketch.</desc>
    <defs></defs>
    <g id="Klickdummy-Moderator" stroke="none" stroke-width="1" fill="none" fill-rule="evenodd">
        <g id="2.-Ideas-overview" transform="translate(-618.000000, -327.000000)">
            <g id="Group" transform="translate(618.000000, 327.000000)">
                <path d="M64.754,60 L0.754,60 L0.754,59.96 C0.754,57.773 2.527,56 4.714,56 L60.794,56 C62.981,56 64.754,57.773 64.754,59.96 L64.754,60 Z" id="Fill-308" fill="#4B6615"></path>
                <polygon id="Fill-309" fill="#8CB735" points="60.754 20 4.754 20 4.754 56 60.754 56"></polygon>
                <path d="M9.8969,20 C9.8969,22.209 7.8499,24 5.3249,24 C2.8009,24 0.7539,22.209 0.7539,20 L9.8969,20 Z" id="Fill-310" fill="#5A7C15"></path>
                <path d="M19.0397,20 C19.0397,22.209 16.9927,24 14.4687,24 C11.9437,24 9.8967,22.209 9.8967,20 L19.0397,20 Z" id="Fill-311" fill="#DCEEC1"></path>
                <path d="M28.1826,20 C28.1826,22.209 26.1356,24 23.6106,24 C21.0866,24 19.0396,22.209 19.0396,20 L28.1826,20 Z" id="Fill-312" fill="#5A7C15"></path>
                <path d="M37.3254,20 C37.3254,22.209 35.2784,24 32.7544,24 C30.2294,24 28.1824,22.209 28.1824,20 L37.3254,20 Z" id="Fill-313" fill="#DCEEC1"></path>
                <path d="M55.6111,20 C55.6111,22.209 53.5641,24 51.0401,24 C48.5151,24 46.4681,22.209 46.4681,20 L55.6111,20 Z" id="Fill-314" fill="#DCEEC1"></path>
                <path d="M46.4683,20 C46.4683,22.209 44.4213,24 41.8973,24 C39.3723,24 37.3253,22.209 37.3253,20 L46.4683,20 Z" id="Fill-315" fill="#5A7C15"></path>
                <path d="M64.754,20 C64.754,22.209 62.707,24 60.183,24 C57.658,24 55.611,22.209 55.611,20 L64.754,20 Z" id="Fill-316" fill="#5A7C15"></path>
                <polygon id="Fill-317" fill="#8CB735" points="0.754 20 9.897 20 17.897 0 9.897 0"></polygon>
                <polygon id="Fill-318" fill="#F7FFE6" points="9.8969 20 19.0399 20 24.7539 0 17.8969 0"></polygon>
                <polygon id="Fill-319" fill="#8CB735" points="19.0397 20 28.1827 20 31.6107 0 24.7537 0"></polygon>
                <polygon id="Fill-320" fill="#F7FFE6" points="28.1826 20 37.3256 20 37.3256 0 31.6106 0"></polygon>
                <polygon id="Fill-321" fill="#8CB735" points="64.754 20 55.611 20 49.897 0 56.754 0"></polygon>
                <polygon id="Fill-322" fill="#F7FFE6" points="55.6111 20 46.4681 20 43.0401 0 49.8971 0"></polygon>
                <polygon id="Fill-323" fill="#8CB735" points="46.4683 20 37.3253 20 37.3253 0 43.0393 0"></polygon>
                <polygon id="Fill-324" fill="#F7FFE6" points="36.754 44 8.754 44 8.754 28 36.754 28"></polygon>
                <polygon id="Fill-325" fill="#DCEEC1" points="36.754 44 8.754 44 36.754 28"></polygon>
                <polygon id="Fill-326" fill="#DCEEC1" points="56.754 28 42.754 28 42.754 41 56.754 41"></polygon>
                <polygon id="Fill-327" fill="#DCEEC1" points="56.754 44 42.754 44 42.754 56 56.754 56"></polygon>
                <path d="M35.732,49 C35.992,45.742 32.327,43.375 28.325,43.375 C26.002,43.375 23.929,44.139 22.567,45.334 C21.947,44.152 20.92,43.375 19.754,43.375 C18.661,43.375 17.699,44.067 17.071,45.125 C16.295,43.207 14.464,41.857 12.325,41.857 C9.825,41.857 7.745,43.702 7.283,46.145 C6.924,45.835 6.499,45.652 6.04,45.652 C4.685,45.652 3.634,47.192 3.778,49 L35.732,49 Z" id="Fill-328" fill="#4B6615"></path>
                <polygon id="Fill-329" fill="#69970B" points="35.754 56 3.754 56 3.754 49 35.754 49"></polygon>
                <polygon id="Fill-330" fill="#5A7C14" points="35.754 51 3.754 51 3.754 49 28.695275 49 35.754 49"></polygon>
            </g>
        </g>
    </g>
</svg>