<?xml version="1.0" encoding="UTF-8" standalone="no"?>
<svg width="43px" height="43px" viewBox="0 0 43 43" version="1.1" xmlns="http://www.w3.org/2000/svg" xmlns:xlink="http://www.w3.org/1999/xlink">
    <!-- Generator: Sketch 3.6.1 (26313) - http://www.bohemiancoding.com/sketch -->
    <title>Page 1</title>
    <desc>Created with Sketch.</desc>
    <defs></defs>
    <g id="Klickdummy-Moderator" stroke="none" stroke-width="1" fill="none" fill-rule="evenodd">
        <g id="2.-Ideas-overview" transform="translate(-574.000000, -420.000000)">
            <g id="Page-1" transform="translate(574.000000, 420.000000)">
                <path d="M43,21.5 C43,33.3740469 33.3740469,43 21.5,43 C9.62595312,43 0,33.3740469 0,21.5 C0,9.62595312 9.62595312,0 21.5,0 C33.3740469,0 43,9.62595312 43,21.5" id="Fill-1" fill="#8CB735"></path>
                <path d="M21.5,6.71875 C13.3367188,6.71875 6.71875,13.3367188 6.71875,21.5 C6.71875,29.6632813 13.3367188,36.28125 21.5,36.28125 C29.6632813,36.28125 36.28125,29.6632813 36.28125,21.5 C36.28125,13.3367188 29.6632813,6.71875 21.5,6.71875 M21.5,9.40625 C28.1683594,9.40625 33.59375,14.8316406 33.59375,21.5 C33.59375,28.1683594 28.1683594,33.59375 21.5,33.59375 C14.8316406,33.59375 9.40625,28.1683594 9.40625,21.5 C9.40625,14.8316406 14.8316406,9.40625 21.5,9.40625" id="Fill-3" fill="#DBF0C1"></path>
                <path d="M26.875,28.21875 C26.531,28.21875 26.1876719,28.0877344 25.9249687,27.8250313 L20.15625,22.0569844 L20.15625,16.125 C20.15625,15.38325 20.75825,14.78125 21.5,14.78125 C22.24175,14.78125 22.84375,15.38325 22.84375,16.125 L22.84375,20.9430156 L27.8250313,25.9249687 C28.3497656,26.4497031 28.3497656,27.3002969 27.8250313,27.8250313 C27.5623281,28.0877344 27.219,28.21875 26.875,28.21875" id="Fill-7" fill="#466A19"></path>
            </g>
        </g>
    </g>
</svg>