<?xml version="1.0" encoding="UTF-8" standalone="no"?>
<svg width="33px" height="45px" viewBox="0 0 33 45" version="1.1" xmlns="http://www.w3.org/2000/svg" xmlns:xlink="http://www.w3.org/1999/xlink">
    <!-- Generator: Sketch 3.6.1 (26313) - http://www.bohemiancoding.com/sketch -->
    <title>Group 4</title>
    <desc>Created with Sketch.</desc>
    <defs></defs>
    <g id="Klickdummy-Moderator" stroke="none" stroke-width="1" fill="none" fill-rule="evenodd">
        <g id="3-Ideas-in-discussion" transform="translate(-108.000000, -62.000000)">
            <g id="Group-4" transform="translate(108.000000, 62.000000)">
                <rect id="Rectangle-5194" fill="#7C7D7C" x="10" y="40" width="14" height="5" rx="100"></rect>
                <path d="M27.8721275,28.4551568 C27.97272,28.3594403 28.0721059,28.2624673 28.17026,28.1642631 C28.1988971,28.1396958 28.2280379,28.115574 28.2576903,28.0919115 C28.3354099,28.0298918 28.3863201,27.9717335 28.4120244,27.9172868 C31.2537727,24.953182 33,20.9305176 33,16.5 C33,7.38730163 25.6126984,0 16.5,0 C7.38730163,0 0,7.38730163 0,16.5 C0,21.7139447 2.41838082,26.3630464 6.19461759,29.3867801 C7.32136603,30.8296304 7,36 7,36 L26.93885,35.5484984 C26.93885,35.5484984 25.8410588,30.7029141 27.8721275,28.4551568 Z" id="Combined-Shape" fill="#C5C6C5"></path>
                <path d="M20.7172714,33.0429739 C20.7172714,33.0429739 20.7172715,18.6750924 20.7172714,17.4163596 C20.7172714,16.1576268 21.5218212,14.9704694 23.441546,14.9704694 C25.3612708,14.9704694 26.4269777,16.0021667 26.4269777,18.4448497 C26.4269776,20.8875326 25.6764519,21.4146341 23.441546,21.4146342 C21.2066401,21.4146343 11.3037536,21.4146343 11.3037536,21.4146343 C11.3037536,21.4146343 7.92114489,21.4046103 7.92114499,18.3000073 C7.92114509,15.1954042 9.65496054,14.7160982 11.7709852,14.8420031 C13.8870098,14.9679079 14.4119683,16.4167079 14.4119683,17.2097272 C14.4119683,18.0027465 14.2986379,33.0429739 14.2986379,33.0429739" id="Path-11682" stroke="#A9A9A9" stroke-width="2"></path>
                <rect id="Rectangle-5194" fill="#7C7D7C" x="7" y="33" width="20" height="5" rx="100"></rect>
            </g>
        </g>
    </g>
</svg>