<?xml version="1.0" encoding="UTF-8" standalone="no"?>
<svg width="44px" height="45px" viewBox="0 0 44 45" version="1.1" xmlns="http://www.w3.org/2000/svg" xmlns:xlink="http://www.w3.org/1999/xlink">
    <!-- Generator: Sketch 3.6.1 (26313) - http://www.bohemiancoding.com/sketch -->
    <title>Group</title>
    <desc>Created with Sketch.</desc>
    <defs></defs>
    <g id="Klickdummy-Moderator" stroke="none" stroke-width="1" fill="none" fill-rule="evenodd">
        <g id="2.-Ideas-overview" transform="translate(-394.000000, -423.000000)">
            <g id="Group" transform="translate(394.000000, 423.000000)">
                <path d="M6.55703333,26.4285714 C6.55703333,27.2178571 7.19845,27.8571429 7.99036667,27.8571429 L29.4903667,27.8571429 L29.4903667,25 L7.99036667,25 C7.19845,25 6.55703333,25.6392857 6.55703333,26.4285714" id="Fill-273" fill="#69970B"></path>
                <path d="M40.9570333,39.2857143 L35.7053,31.7735714 C38.0430667,30.2407143 39.7996167,27.9957143 40.7621,25.1914286 C42.6326,19.7407143 41.1376333,13.25 37.0433167,9.04 C33.66925,5.57142857 28.9600333,4.06428571 23.7570333,4.68571429 L23.7570333,2.14285714 L15.1570333,2.14285714 L15.1570333,19.2857143 L23.7570333,19.2857143 L23.7570333,11.1771429 C27.3117,10.5321429 30.2794167,11.3221429 32.4122167,13.515 C34.8230833,15.9942857 35.7468667,19.94 34.6589667,23.1107143 C34.2683833,24.25 33.50155,25.575 32.0166167,26.4978571 L31.7736667,26.15 C31.2390333,25.4271429 30.3919333,25 29.4903667,25 C28.5888,25 27.7417,25.4271429 27.2070667,26.15 L18.0237,39.2857143 L2.25703333,39.2857143 C1.46583333,39.2857143 0.8237,39.9257143 0.8237,40.7142857 L0.8237,43.5714286 C0.8237,44.36 1.46583333,45 2.25703333,45 L42.3903667,45 C43.1815667,45 43.8237,44.36 43.8237,43.5714286 L43.8237,40.7142857 C43.8237,39.9257143 43.1815667,39.2857143 42.3903667,39.2857143 L40.9570333,39.2857143 Z" id="Fill-274" fill="#69970B"></path>
                <path d="M21.6070333,0 L17.3070333,0 L17.3070333,2.14285714 L21.6070333,2.14285714 L21.6070333,0 Z" id="Fill-275" fill="#4D7114"></path>
                <path d="M22.3237,22.1428571 L16.5903667,22.1428571 L16.5903667,19.2857143 L22.3237,19.2857143 L22.3237,22.1428571 Z" id="Fill-276" fill="#506F10"></path>
                <path d="M35.7055867,31.7738571 C38.0433533,30.241 39.7999033,27.996 40.7623867,25.191 C42.63217,19.7402857 41.13792,13.2495714 37.0436033,9.04028571 C33.6695367,5.571 28.9596033,4.06457143 23.75732,4.686 L23.75732,11.1774286 C27.3119867,10.5324286 30.2797033,11.3224286 32.4125033,13.5152857 C34.82337,15.9938571 35.7471533,19.9402857 34.6592533,23.111 C34.26867,24.2502857 33.5018367,25.5752857 32.0169033,26.4974286 L31.7739533,26.1502857 C31.23932,25.4267143 30.3915033,25.0002857 29.4906533,25.0002857 C28.5890867,25.0002857 27.74127,25.4267143 27.2066367,26.1502857 L18.0239867,39.286 L40.95732,39.286 L35.7055867,31.7738571 Z" id="Fill-277" fill="#8CB735"></path>
                <path d="M31.774025,26.1500714 C31.2393917,25.4272143 30.391575,25.0000714 29.490725,25.0000714 C28.5891583,25.0000714 27.7413417,25.4272143 27.2067083,26.1500714 L18.0240583,39.2857857 L24.3959417,39.2857857 L34.156225,29.5579286 L31.774025,26.1500714 Z" id="Fill-278" fill="#B9DE6E"></path>
                <path d="M19.4570333,19.2857143 L16.5903667,19.2857143 L16.5903667,22.1428571 L19.4570333,22.1428571 L19.4570333,19.2857143 Z" id="Fill-279" fill="#609D18"></path>
                <path d="M19.4570333,0 L17.3070333,0 L17.3070333,2.14285714 L19.4570333,2.14285714 L19.4570333,0 Z" id="Fill-280" fill="#609D18"></path>
                <path d="M19.4570333,2.14285714 L15.1570333,2.14285714 L15.1570333,19.2857143 L19.4570333,19.2857143 L19.4570333,2.14285714 Z" id="Fill-281" fill="#B9DD6E"></path>
                <path d="M30.9237,29.2857143 C30.9237,30.075 30.2822833,30.7142857 29.4903667,30.7142857 C28.69845,30.7142857 28.0570333,30.075 28.0570333,29.2857143 C28.0570333,28.4964286 28.69845,27.8571429 29.4903667,27.8571429 C30.2822833,27.8571429 30.9237,28.4964286 30.9237,29.2857143" id="Fill-282" fill="#69970B"></path>
            </g>
        </g>
    </g>
</svg>