<?xml version="1.0" encoding="UTF-8" standalone="no"?>
<svg width="65px" height="64px" viewBox="0 0 65 64" version="1.1" xmlns="http://www.w3.org/2000/svg" xmlns:xlink="http://www.w3.org/1999/xlink">
    <!-- Generator: Sketch 3.8.3 (29802) - http://www.bohemiancoding.com/sketch -->
    <title>Group</title>
    <desc>Created with Sketch.</desc>
    <defs></defs>
    <g id="Klickdummy-Moderator" stroke="none" stroke-width="1" fill="none" fill-rule="evenodd">
        <g id="4.4-Topic-overview:-Result-phase" transform="translate(-591.000000, -490.000000)">
            <g id="Group" transform="translate(591.000000, 490.000000)">
                <g>
                    <path d="M43.5313,25.6138 L61.4003,-0.0002 L64.7543,-0.0002 L45.6913,27.3218 C45.0063,26.7118 44.2933,26.1308 43.5313,25.6138" id="Fill-735" fill="#ABC96D"></path>
                    <path d="M36.378,22.5273 L52.095,0.0003 L61.4,0.0003 L43.531,25.6133 C41.397,24.1643 38.976,23.1113 36.378,22.5273" id="Fill-736" fill="#5E8411"></path>
                    <path d="M33.4225,22.0842 L48.8305,0.0002 L52.0945,0.0002 L36.3785,22.5272 C35.4155,22.3112 34.4295,22.1632 33.4225,22.0842" id="Fill-737" fill="#ABC96D"></path>
                    <path d="M53.754,43 C53.754,54.598 44.352,64 32.754,64 C21.156,64 11.754,54.598 11.754,43 C11.754,31.402 21.156,22 32.754,22 C44.352,22 53.754,31.402 53.754,43" id="Fill-738" fill="#516F14"></path>
                    <path d="M21.9767,25.6138 L4.1077,-0.0002 L0.7537,-0.0002 L19.8167,27.3218 C20.5017,26.7118 21.2147,26.1308 21.9767,25.6138" id="Fill-745" fill="#ABC96D"></path>
                    <path d="M48.254,43 C48.254,51.56 41.314,58.5 32.754,58.5 C24.194,58.5 17.254,51.56 17.254,43 C17.254,34.44 24.194,27.5 32.754,27.5 C41.314,27.5 48.254,34.44 48.254,43" id="Fill-739" fill="#D0E5A4"></path>
                    <path d="M64.6518,26.1338 C64.7108,26.1248 64.7538,26.0748 64.7538,26.0148 L64.7538,25.9848 C64.7538,25.9258 64.7108,25.8748 64.6518,25.8658 C61.3098,25.3648 59.3888,23.4428 58.8878,20.1018 C58.8788,20.0428 58.8288,19.9998 58.7688,19.9998 L58.7388,19.9998 C58.6788,19.9998 58.6288,20.0438 58.6198,20.1018 C58.1188,23.4438 56.1978,25.3648 52.8558,25.8658 C52.7968,25.8748 52.7538,25.9258 52.7538,25.9848 L52.7538,26.0148 C52.7538,26.0748 52.7978,26.1248 52.8558,26.1338 C56.1978,26.6348 58.1188,28.5568 58.6198,31.8978 C58.6288,31.9568 58.6798,31.9998 58.7388,31.9998 L58.7818,31.9998 C58.8338,31.9998 58.8778,31.9618 58.8858,31.9108 C59.3848,28.5618 61.3058,26.6358 64.6518,26.1338" id="Fill-740" fill="#FFFFFF"></path>
                    <path d="M14.6348,57.1561 C14.7028,57.1461 14.7538,57.0871 14.7538,57.0181 L14.7538,56.9821 C14.7538,56.9131 14.7038,56.8541 14.6348,56.8441 C10.7358,56.2591 8.4948,54.0171 7.9098,50.1191 C7.8998,50.0501 7.8408,50.0001 7.7718,50.0001 L7.7358,50.0001 C7.6668,50.0001 7.6078,50.0511 7.5978,50.1191 C7.0128,54.0171 4.7718,56.2591 0.8728,56.8441 C0.8048,56.8541 0.7538,56.9131 0.7538,56.9821 L0.7538,57.0181 C0.7538,57.0871 0.8048,57.1461 0.8728,57.1561 C4.7718,57.7411 7.0128,59.9831 7.5978,63.8811 C7.6078,63.9491 7.6668,64.0001 7.7368,64.0001 L7.7868,64.0001 C7.8468,64.0001 7.8988,63.9561 7.9078,63.8961 C8.4898,59.9891 10.7308,57.7421 14.6348,57.1561" id="Fill-741" fill="#FFFFFF"></path>
                    <path d="M32.754,22 C21.156,22 11.754,31.402 11.754,43 C11.754,48.88 14.177,54.189 18.072,58.001 L47.755,28.318 C43.943,24.423 38.634,22 32.754,22" id="Fill-742" fill="#7FAC22"></path>
                    <path d="M32.754,27.5 C24.194,27.5 17.254,34.439 17.254,43 C17.254,47.361 19.062,51.295 21.961,54.112 L43.866,32.207 C41.049,29.308 37.115,27.5 32.754,27.5" id="Fill-743" fill="#E1F0C2"></path>
                    <path d="M29.13,22.5273 L13.413,0.0003 L4.108,0.0003 L21.977,25.6133 C24.111,24.1643 26.532,23.1113 29.13,22.5273" id="Fill-746" fill="#5E8411"></path>
                    <path d="M32.0855,22.0842 L16.6775,0.0002 L13.4135,0.0002 L29.1295,22.5272 C30.0925,22.3112 31.0785,22.1632 32.0855,22.0842" id="Fill-747" fill="#ABC96D"></path>
                </g>
            </g>
        </g>
    </g>
</svg>